M48
; DRILL file {KiCad 7.0.9} date Thu Feb 22 17:02:08 2024
; FORMAT={-:-/ absolute / inch / decimal}
; #@! TF.CreationDate,2024-02-22T17:02:08-03:00
; #@! TF.GenerationSoftware,Kicad,Pcbnew,7.0.9
; #@! TF.FileFunction,Plated,1,2,PTH
FMAT,2
INCH
; #@! TA.AperFunction,Plated,PTH,ViaDrill
T1C0.0118
; #@! TA.AperFunction,Plated,PTH,ViaDrill
T2C0.0157
; #@! TA.AperFunction,Plated,PTH,ComponentDrill
T3C0.0315
; #@! TA.AperFunction,Plated,PTH,ComponentDrill
T4C0.0394
%
G90
G05
T1
X4.8079Y-4.2961
X4.9795Y-4.3276
T2
X4.587Y-4.5516
X4.7559Y-3.7941
X4.8701Y-4.5496
X5.1764Y-4.0165
X5.2098Y-4.2075
X5.263Y-3.7941
X5.263Y-3.9457
X5.3984Y-3.6008
X5.4992Y-3.6016
X5.5937Y-3.7921
X5.6252Y-4.3236
X5.6882Y-4.0992
X5.6972Y-3.7941
X5.7157Y-4.048
X5.7512Y-3.9969
X5.763Y-4.4535
X5.7906Y-4.4142
X5.8417Y-3.9654
X5.8669Y-4.1008
X5.8772Y-4.2528
X5.8811Y-3.9417
X5.9047Y-4.611
X5.9795Y-4.237
X5.9874Y-3.9575
X6.0125Y-4.019
X6.1217Y-3.7941
X6.1567Y-4.3039
X6.2039Y-3.8315
X6.2906Y-4.3213
X6.4685Y-4.3213
X6.6291Y-4.115
X6.6894Y-4.3209
X6.9398Y-3.972
X7.0508Y-4.3209
X7.1185Y-3.9701
T3
X5.0693Y-4.0154
X5.0693Y-4.2075
X6.999Y-4.4476
X7.0974Y-4.4476
T4
X4.5868Y-3.9614
X4.5868Y-4.0614
X4.5868Y-4.1614
X4.5868Y-4.2614
X4.6984Y-3.5114
X4.6996Y-4.7114
X4.7984Y-3.5114
X4.7996Y-4.7114
X4.8984Y-3.5114
X4.8996Y-4.7114
X4.9984Y-3.5114
X4.9996Y-4.7114
X5.0984Y-3.5114
X5.0996Y-4.7114
X5.1984Y-3.5114
X5.1996Y-4.7114
X5.2984Y-3.5114
X5.2996Y-4.7114
X5.3984Y-3.5114
X5.3996Y-4.7114
X5.4984Y-3.5114
X5.4996Y-4.7114
X5.5984Y-3.5114
X5.5996Y-4.7114
X5.6984Y-3.5114
X5.6996Y-4.7114
X5.7984Y-3.5114
X5.7996Y-4.7114
X5.8984Y-3.5114
X5.8996Y-4.7114
X5.9984Y-3.5114
X5.9996Y-4.7114
X6.0984Y-3.5114
X6.0996Y-4.7114
X6.1984Y-3.5114
X6.1996Y-4.7114
X6.2984Y-3.5114
X6.2996Y-4.7114
X6.3984Y-3.5114
X6.3996Y-4.7114
X6.4984Y-3.5114
X6.4996Y-4.7114
X6.5984Y-3.5114
X6.5996Y-4.7114
X6.6984Y-3.5114
X6.6996Y-4.7114
X6.7984Y-3.5114
X6.7996Y-4.7114
X6.8984Y-3.5114
X6.8996Y-4.7114
X6.9984Y-3.5114
X6.9996Y-4.7114
X7.0984Y-3.5114
X7.0996Y-4.7114
T0
M30
