%TF.GenerationSoftware,KiCad,Pcbnew,7.0.9*%
%TF.CreationDate,2024-02-22T17:01:59-03:00*%
%TF.ProjectId,CPU Stm32G431,43505520-5374-46d3-9332-473433312e6b,rev?*%
%TF.SameCoordinates,Original*%
%TF.FileFunction,Soldermask,Bot*%
%TF.FilePolarity,Negative*%
%FSLAX46Y46*%
G04 Gerber Fmt 4.6, Leading zero omitted, Abs format (unit mm)*
G04 Created by KiCad (PCBNEW 7.0.9) date 2024-02-22 17:01:59*
%MOMM*%
%LPD*%
G01*
G04 APERTURE LIST*
G04 Aperture macros list*
%AMRoundRect*
0 Rectangle with rounded corners*
0 $1 Rounding radius*
0 $2 $3 $4 $5 $6 $7 $8 $9 X,Y pos of 4 corners*
0 Add a 4 corners polygon primitive as box body*
4,1,4,$2,$3,$4,$5,$6,$7,$8,$9,$2,$3,0*
0 Add four circle primitives for the rounded corners*
1,1,$1+$1,$2,$3*
1,1,$1+$1,$4,$5*
1,1,$1+$1,$6,$7*
1,1,$1+$1,$8,$9*
0 Add four rect primitives between the rounded corners*
20,1,$1+$1,$2,$3,$4,$5,0*
20,1,$1+$1,$4,$5,$6,$7,0*
20,1,$1+$1,$6,$7,$8,$9,0*
20,1,$1+$1,$8,$9,$2,$3,0*%
G04 Aperture macros list end*
%ADD10R,1.600000X1.600000*%
%ADD11C,1.600000*%
%ADD12C,1.500000*%
%ADD13R,1.700000X1.700000*%
%ADD14O,1.700000X1.700000*%
%ADD15RoundRect,0.250000X-0.475000X0.337500X-0.475000X-0.337500X0.475000X-0.337500X0.475000X0.337500X0*%
%ADD16RoundRect,0.250000X-1.000000X-0.650000X1.000000X-0.650000X1.000000X0.650000X-1.000000X0.650000X0*%
%ADD17RoundRect,0.150000X0.150000X-0.825000X0.150000X0.825000X-0.150000X0.825000X-0.150000X-0.825000X0*%
%ADD18RoundRect,0.250000X-0.450000X0.350000X-0.450000X-0.350000X0.450000X-0.350000X0.450000X0.350000X0*%
%ADD19RoundRect,0.250000X0.475000X-0.337500X0.475000X0.337500X-0.475000X0.337500X-0.475000X-0.337500X0*%
%ADD20RoundRect,0.250000X1.000000X0.650000X-1.000000X0.650000X-1.000000X-0.650000X1.000000X-0.650000X0*%
%ADD21RoundRect,0.250000X0.350000X0.450000X-0.350000X0.450000X-0.350000X-0.450000X0.350000X-0.450000X0*%
%ADD22RoundRect,0.250000X0.450000X-0.350000X0.450000X0.350000X-0.450000X0.350000X-0.450000X-0.350000X0*%
G04 APERTURE END LIST*
D10*
%TO.C,C5*%
X177774888Y-112970000D03*
D11*
X180274888Y-112970000D03*
%TD*%
D12*
%TO.C,Y1*%
X128760000Y-106870000D03*
X128760000Y-101990000D03*
%TD*%
D13*
%TO.C,J1*%
X116505000Y-100620000D03*
D14*
X116505000Y-103160000D03*
X116505000Y-105700000D03*
X116505000Y-108240000D03*
%TD*%
D15*
%TO.C,C11*%
X144780000Y-105982500D03*
X144780000Y-108057500D03*
%TD*%
D16*
%TO.C,D1*%
X152380000Y-111520000D03*
X156380000Y-111520000D03*
%TD*%
D17*
%TO.C,U3*%
X164285000Y-106895000D03*
X163015000Y-106895000D03*
X161745000Y-106895000D03*
X160475000Y-106895000D03*
X160475000Y-101945000D03*
X161745000Y-101945000D03*
X163015000Y-101945000D03*
X164285000Y-101945000D03*
%TD*%
D18*
%TO.C,R4*%
X137080000Y-93020000D03*
X137080000Y-95020000D03*
%TD*%
D19*
%TO.C,C12*%
X150680000Y-104157500D03*
X150680000Y-102082500D03*
%TD*%
D13*
%TO.C,J2*%
X119370000Y-119670000D03*
D14*
X121910000Y-119670000D03*
X124450000Y-119670000D03*
X126990000Y-119670000D03*
X129530000Y-119670000D03*
X132070000Y-119670000D03*
X134610000Y-119670000D03*
X137150000Y-119670000D03*
X139690000Y-119670000D03*
X142230000Y-119670000D03*
X144770000Y-119670000D03*
X147310000Y-119670000D03*
X149850000Y-119670000D03*
X152390000Y-119670000D03*
X154930000Y-119670000D03*
X157470000Y-119670000D03*
X160010000Y-119670000D03*
X162550000Y-119670000D03*
X165090000Y-119670000D03*
X167630000Y-119670000D03*
X170170000Y-119670000D03*
X172710000Y-119670000D03*
X175250000Y-119670000D03*
X177790000Y-119670000D03*
X180330000Y-119670000D03*
%TD*%
D16*
%TO.C,D2*%
X152380000Y-115320000D03*
X156380000Y-115320000D03*
%TD*%
D19*
%TO.C,C9*%
X159980000Y-113557500D03*
X159980000Y-111482500D03*
%TD*%
D13*
%TO.C,J3*%
X119340000Y-89190000D03*
D14*
X121880000Y-89190000D03*
X124420000Y-89190000D03*
X126960000Y-89190000D03*
X129500000Y-89190000D03*
X132040000Y-89190000D03*
X134580000Y-89190000D03*
X137120000Y-89190000D03*
X139660000Y-89190000D03*
X142200000Y-89190000D03*
X144740000Y-89190000D03*
X147280000Y-89190000D03*
X149820000Y-89190000D03*
X152360000Y-89190000D03*
X154900000Y-89190000D03*
X157440000Y-89190000D03*
X159980000Y-89190000D03*
X162520000Y-89190000D03*
X165060000Y-89190000D03*
X167600000Y-89190000D03*
X170140000Y-89190000D03*
X172680000Y-89190000D03*
X175220000Y-89190000D03*
X177760000Y-89190000D03*
X180300000Y-89190000D03*
%TD*%
D19*
%TO.C,C17*%
X166680000Y-106695000D03*
X166680000Y-104620000D03*
%TD*%
%TO.C,C16*%
X141780000Y-108057500D03*
X141780000Y-105982500D03*
%TD*%
D20*
%TO.C,D5*%
X181240000Y-115970000D03*
X177240000Y-115970000D03*
%TD*%
D18*
%TO.C,R5*%
X139680000Y-92980000D03*
X139680000Y-94980000D03*
%TD*%
D19*
%TO.C,C13*%
X154480000Y-104157500D03*
X154480000Y-102082500D03*
%TD*%
D21*
%TO.C,R2*%
X159580000Y-95420000D03*
X157580000Y-95420000D03*
%TD*%
D22*
%TO.C,R1*%
X147780000Y-108020000D03*
X147780000Y-106020000D03*
%TD*%
M02*
