%TF.GenerationSoftware,KiCad,Pcbnew,7.0.9*%
%TF.CreationDate,2024-03-19T10:53:32-03:00*%
%TF.ProjectId,CPU Stm32G431,43505520-5374-46d3-9332-473433312e6b,rev?*%
%TF.SameCoordinates,Original*%
%TF.FileFunction,Drillmap*%
%TF.FilePolarity,Positive*%
%FSLAX45Y45*%
G04 Gerber Fmt 4.5, Leading zero omitted, Abs format (unit mm)*
G04 Created by KiCad (PCBNEW 7.0.9) date 2024-03-19 10:53:32*
%MOMM*%
%LPD*%
G01*
G04 APERTURE LIST*
%ADD10C,0.100000*%
%ADD11C,0.200000*%
G04 APERTURE END LIST*
D10*
X18288000Y-8640000D02*
X18288000Y-12239000D01*
X11401000Y-8641000D02*
X18288000Y-8640000D01*
X18288000Y-12239000D02*
X11400000Y-12239000D01*
X11400000Y-12239000D02*
X11401000Y-8641000D01*
D11*
X11655777Y-12555484D02*
X11655777Y-12355484D01*
X11655777Y-12355484D02*
X11703396Y-12355484D01*
X11703396Y-12355484D02*
X11731967Y-12365008D01*
X11731967Y-12365008D02*
X11751015Y-12384055D01*
X11751015Y-12384055D02*
X11760539Y-12403103D01*
X11760539Y-12403103D02*
X11770062Y-12441198D01*
X11770062Y-12441198D02*
X11770062Y-12469769D01*
X11770062Y-12469769D02*
X11760539Y-12507865D01*
X11760539Y-12507865D02*
X11751015Y-12526912D01*
X11751015Y-12526912D02*
X11731967Y-12545960D01*
X11731967Y-12545960D02*
X11703396Y-12555484D01*
X11703396Y-12555484D02*
X11655777Y-12555484D01*
X11855777Y-12555484D02*
X11855777Y-12422150D01*
X11855777Y-12460246D02*
X11865301Y-12441198D01*
X11865301Y-12441198D02*
X11874824Y-12431674D01*
X11874824Y-12431674D02*
X11893872Y-12422150D01*
X11893872Y-12422150D02*
X11912920Y-12422150D01*
X11979586Y-12555484D02*
X11979586Y-12422150D01*
X11979586Y-12355484D02*
X11970062Y-12365008D01*
X11970062Y-12365008D02*
X11979586Y-12374531D01*
X11979586Y-12374531D02*
X11989110Y-12365008D01*
X11989110Y-12365008D02*
X11979586Y-12355484D01*
X11979586Y-12355484D02*
X11979586Y-12374531D01*
X12103396Y-12555484D02*
X12084348Y-12545960D01*
X12084348Y-12545960D02*
X12074824Y-12526912D01*
X12074824Y-12526912D02*
X12074824Y-12355484D01*
X12208158Y-12555484D02*
X12189110Y-12545960D01*
X12189110Y-12545960D02*
X12179586Y-12526912D01*
X12179586Y-12526912D02*
X12179586Y-12355484D01*
X12436729Y-12555484D02*
X12436729Y-12355484D01*
X12436729Y-12355484D02*
X12503396Y-12498341D01*
X12503396Y-12498341D02*
X12570062Y-12355484D01*
X12570062Y-12355484D02*
X12570062Y-12555484D01*
X12751015Y-12555484D02*
X12751015Y-12450722D01*
X12751015Y-12450722D02*
X12741491Y-12431674D01*
X12741491Y-12431674D02*
X12722443Y-12422150D01*
X12722443Y-12422150D02*
X12684348Y-12422150D01*
X12684348Y-12422150D02*
X12665301Y-12431674D01*
X12751015Y-12545960D02*
X12731967Y-12555484D01*
X12731967Y-12555484D02*
X12684348Y-12555484D01*
X12684348Y-12555484D02*
X12665301Y-12545960D01*
X12665301Y-12545960D02*
X12655777Y-12526912D01*
X12655777Y-12526912D02*
X12655777Y-12507865D01*
X12655777Y-12507865D02*
X12665301Y-12488817D01*
X12665301Y-12488817D02*
X12684348Y-12479293D01*
X12684348Y-12479293D02*
X12731967Y-12479293D01*
X12731967Y-12479293D02*
X12751015Y-12469769D01*
X12846253Y-12422150D02*
X12846253Y-12622150D01*
X12846253Y-12431674D02*
X12865301Y-12422150D01*
X12865301Y-12422150D02*
X12903396Y-12422150D01*
X12903396Y-12422150D02*
X12922443Y-12431674D01*
X12922443Y-12431674D02*
X12931967Y-12441198D01*
X12931967Y-12441198D02*
X12941491Y-12460246D01*
X12941491Y-12460246D02*
X12941491Y-12517388D01*
X12941491Y-12517388D02*
X12931967Y-12536436D01*
X12931967Y-12536436D02*
X12922443Y-12545960D01*
X12922443Y-12545960D02*
X12903396Y-12555484D01*
X12903396Y-12555484D02*
X12865301Y-12555484D01*
X12865301Y-12555484D02*
X12846253Y-12545960D01*
X13027205Y-12536436D02*
X13036729Y-12545960D01*
X13036729Y-12545960D02*
X13027205Y-12555484D01*
X13027205Y-12555484D02*
X13017682Y-12545960D01*
X13017682Y-12545960D02*
X13027205Y-12536436D01*
X13027205Y-12536436D02*
X13027205Y-12555484D01*
X13027205Y-12431674D02*
X13036729Y-12441198D01*
X13036729Y-12441198D02*
X13027205Y-12450722D01*
X13027205Y-12450722D02*
X13017682Y-12441198D01*
X13017682Y-12441198D02*
X13027205Y-12431674D01*
X13027205Y-12431674D02*
X13027205Y-12450722D01*
M02*
