%TF.GenerationSoftware,KiCad,Pcbnew,7.0.9*%
%TF.CreationDate,2024-03-19T10:53:25-03:00*%
%TF.ProjectId,CPU Stm32G431,43505520-5374-46d3-9332-473433312e6b,rev?*%
%TF.SameCoordinates,Original*%
%TF.FileFunction,Soldermask,Top*%
%TF.FilePolarity,Negative*%
%FSLAX46Y46*%
G04 Gerber Fmt 4.6, Leading zero omitted, Abs format (unit mm)*
G04 Created by KiCad (PCBNEW 7.0.9) date 2024-03-19 10:53:25*
%MOMM*%
%LPD*%
G01*
G04 APERTURE LIST*
G04 Aperture macros list*
%AMRoundRect*
0 Rectangle with rounded corners*
0 $1 Rounding radius*
0 $2 $3 $4 $5 $6 $7 $8 $9 X,Y pos of 4 corners*
0 Add a 4 corners polygon primitive as box body*
4,1,4,$2,$3,$4,$5,$6,$7,$8,$9,$2,$3,0*
0 Add four circle primitives for the rounded corners*
1,1,$1+$1,$2,$3*
1,1,$1+$1,$4,$5*
1,1,$1+$1,$6,$7*
1,1,$1+$1,$8,$9*
0 Add four rect primitives between the rounded corners*
20,1,$1+$1,$2,$3,$4,$5,0*
20,1,$1+$1,$4,$5,$6,$7,0*
20,1,$1+$1,$6,$7,$8,$9,0*
20,1,$1+$1,$8,$9,$2,$3,0*%
G04 Aperture macros list end*
%ADD10RoundRect,0.250000X0.475000X-0.337500X0.475000X0.337500X-0.475000X0.337500X-0.475000X-0.337500X0*%
%ADD11RoundRect,0.250000X-0.337500X-0.475000X0.337500X-0.475000X0.337500X0.475000X-0.337500X0.475000X0*%
%ADD12R,1.600000X1.600000*%
%ADD13C,1.600000*%
%ADD14R,1.900000X1.300000*%
%ADD15RoundRect,0.250000X0.450000X-0.325000X0.450000X0.325000X-0.450000X0.325000X-0.450000X-0.325000X0*%
%ADD16RoundRect,0.250000X-0.325000X-0.450000X0.325000X-0.450000X0.325000X0.450000X-0.325000X0.450000X0*%
%ADD17C,1.500000*%
%ADD18RoundRect,0.250000X-0.475000X0.337500X-0.475000X-0.337500X0.475000X-0.337500X0.475000X0.337500X0*%
%ADD19R,1.500000X2.000000*%
%ADD20R,3.800000X2.000000*%
%ADD21R,1.700000X1.700000*%
%ADD22O,1.700000X1.700000*%
%ADD23RoundRect,0.250000X0.350000X0.450000X-0.350000X0.450000X-0.350000X-0.450000X0.350000X-0.450000X0*%
%ADD24RoundRect,0.075000X0.075000X-0.700000X0.075000X0.700000X-0.075000X0.700000X-0.075000X-0.700000X0*%
%ADD25RoundRect,0.075000X0.700000X-0.075000X0.700000X0.075000X-0.700000X0.075000X-0.700000X-0.075000X0*%
G04 APERTURE END LIST*
D10*
%TO.C,C8*%
X171580000Y-104357500D03*
X171580000Y-102282500D03*
%TD*%
D11*
%TO.C,C2*%
X126625000Y-97100000D03*
X128700000Y-97100000D03*
%TD*%
%TO.C,C10*%
X139942500Y-98620000D03*
X142017500Y-98620000D03*
%TD*%
D12*
%TO.C,C5*%
X177774888Y-112970000D03*
D13*
X180274888Y-112970000D03*
%TD*%
D14*
%TO.C,Y2*%
X123740000Y-107220000D03*
X120540000Y-107220000D03*
X123740000Y-101720000D03*
X120540000Y-101720000D03*
%TD*%
D15*
%TO.C,D3*%
X157580000Y-101545000D03*
X157580000Y-99495000D03*
%TD*%
D16*
%TO.C,D4*%
X169955000Y-107920000D03*
X172005000Y-107920000D03*
%TD*%
D17*
%TO.C,Y1*%
X128760000Y-106870000D03*
X128760000Y-101990000D03*
%TD*%
D10*
%TO.C,C3*%
X123770000Y-112007500D03*
X123770000Y-109932500D03*
%TD*%
D18*
%TO.C,C14*%
X155000000Y-109787500D03*
X155000000Y-111862500D03*
%TD*%
D10*
%TO.C,C4*%
X120570000Y-112007500D03*
X120570000Y-109932500D03*
%TD*%
%TO.C,C7*%
X173680000Y-104357500D03*
X173680000Y-102282500D03*
%TD*%
%TO.C,C6*%
X180870000Y-109357500D03*
X180870000Y-107282500D03*
%TD*%
D19*
%TO.C,U1*%
X176280000Y-103870000D03*
X178580000Y-103870000D03*
D20*
X178580000Y-97570000D03*
D19*
X180880000Y-103870000D03*
%TD*%
D21*
%TO.C,J1*%
X116505000Y-100620000D03*
D22*
X116505000Y-103160000D03*
X116505000Y-105700000D03*
X116505000Y-108240000D03*
%TD*%
D23*
%TO.C,R3*%
X175980000Y-107920000D03*
X173980000Y-107920000D03*
%TD*%
D24*
%TO.C,U2*%
X144810000Y-109975000D03*
X145310000Y-109975000D03*
X145810000Y-109975000D03*
X146310000Y-109975000D03*
X146810000Y-109975000D03*
X147310000Y-109975000D03*
X147810000Y-109975000D03*
X148310000Y-109975000D03*
X148810000Y-109975000D03*
X149310000Y-109975000D03*
X149810000Y-109975000D03*
X150310000Y-109975000D03*
X150810000Y-109975000D03*
X151310000Y-109975000D03*
X151810000Y-109975000D03*
X152310000Y-109975000D03*
D25*
X154235000Y-108050000D03*
X154235000Y-107550000D03*
X154235000Y-107050000D03*
X154235000Y-106550000D03*
X154235000Y-106050000D03*
X154235000Y-105550000D03*
X154235000Y-105050000D03*
X154235000Y-104550000D03*
X154235000Y-104050000D03*
X154235000Y-103550000D03*
X154235000Y-103050000D03*
X154235000Y-102550000D03*
X154235000Y-102050000D03*
X154235000Y-101550000D03*
X154235000Y-101050000D03*
X154235000Y-100550000D03*
D24*
X152310000Y-98625000D03*
X151810000Y-98625000D03*
X151310000Y-98625000D03*
X150810000Y-98625000D03*
X150310000Y-98625000D03*
X149810000Y-98625000D03*
X149310000Y-98625000D03*
X148810000Y-98625000D03*
X148310000Y-98625000D03*
X147810000Y-98625000D03*
X147310000Y-98625000D03*
X146810000Y-98625000D03*
X146310000Y-98625000D03*
X145810000Y-98625000D03*
X145310000Y-98625000D03*
X144810000Y-98625000D03*
D25*
X142885000Y-100550000D03*
X142885000Y-101050000D03*
X142885000Y-101550000D03*
X142885000Y-102050000D03*
X142885000Y-102550000D03*
X142885000Y-103050000D03*
X142885000Y-103550000D03*
X142885000Y-104050000D03*
X142885000Y-104550000D03*
X142885000Y-105050000D03*
X142885000Y-105550000D03*
X142885000Y-106050000D03*
X142885000Y-106550000D03*
X142885000Y-107050000D03*
X142885000Y-107550000D03*
X142885000Y-108050000D03*
%TD*%
D11*
%TO.C,C1*%
X126642500Y-111720000D03*
X128717500Y-111720000D03*
%TD*%
D21*
%TO.C,J2*%
X119370000Y-119670000D03*
D22*
X121910000Y-119670000D03*
X124450000Y-119670000D03*
X126990000Y-119670000D03*
X129530000Y-119670000D03*
X132070000Y-119670000D03*
X134610000Y-119670000D03*
X137150000Y-119670000D03*
X139690000Y-119670000D03*
X142230000Y-119670000D03*
X144770000Y-119670000D03*
X147310000Y-119670000D03*
X149850000Y-119670000D03*
X152390000Y-119670000D03*
X154930000Y-119670000D03*
X157470000Y-119670000D03*
X160010000Y-119670000D03*
X162550000Y-119670000D03*
X165090000Y-119670000D03*
X167630000Y-119670000D03*
X170170000Y-119670000D03*
X172710000Y-119670000D03*
X175250000Y-119670000D03*
X177790000Y-119670000D03*
X180330000Y-119670000D03*
%TD*%
D21*
%TO.C,J3*%
X119340000Y-89190000D03*
D22*
X121880000Y-89190000D03*
X124420000Y-89190000D03*
X126960000Y-89190000D03*
X129500000Y-89190000D03*
X132040000Y-89190000D03*
X134580000Y-89190000D03*
X137120000Y-89190000D03*
X139660000Y-89190000D03*
X142200000Y-89190000D03*
X144740000Y-89190000D03*
X147280000Y-89190000D03*
X149820000Y-89190000D03*
X152360000Y-89190000D03*
X154900000Y-89190000D03*
X157440000Y-89190000D03*
X159980000Y-89190000D03*
X162520000Y-89190000D03*
X165060000Y-89190000D03*
X167600000Y-89190000D03*
X170140000Y-89190000D03*
X172680000Y-89190000D03*
X175220000Y-89190000D03*
X177760000Y-89190000D03*
X180300000Y-89190000D03*
%TD*%
M02*
