%TF.GenerationSoftware,KiCad,Pcbnew,7.0.9*%
%TF.CreationDate,2024-03-19T10:53:32-03:00*%
%TF.ProjectId,CPU Stm32G431,43505520-5374-46d3-9332-473433312e6b,rev?*%
%TF.SameCoordinates,Original*%
%TF.FileFunction,Drillmap*%
%TF.FilePolarity,Positive*%
%FSLAX45Y45*%
G04 Gerber Fmt 4.5, Leading zero omitted, Abs format (unit mm)*
G04 Created by KiCad (PCBNEW 7.0.9) date 2024-03-19 10:53:32*
%MOMM*%
%LPD*%
G01*
G04 APERTURE LIST*
%ADD10C,0.100000*%
%ADD11C,0.200000*%
G04 APERTURE END LIST*
D10*
X18288000Y-8640000D02*
X18288000Y-12239000D01*
X11401000Y-8641000D02*
X18288000Y-8640000D01*
X18288000Y-12239000D02*
X11400000Y-12239000D01*
X11400000Y-12239000D02*
X11401000Y-8641000D01*
D11*
D10*
X12197000Y-10897000D02*
X12227000Y-10927000D01*
X12227000Y-10897000D02*
X12197000Y-10927000D01*
X12633000Y-10977000D02*
X12663000Y-11007000D01*
X12663000Y-10977000D02*
X12633000Y-11007000D01*
X11622500Y-11915000D02*
G75*
G03*
X11622500Y-11915000I-20000J0D01*
G01*
X11622500Y-12022500D02*
G75*
G03*
X11622500Y-12022500I-20000J0D01*
G01*
X11627500Y-8870000D02*
G75*
G03*
X11627500Y-8870000I-20000J0D01*
G01*
X11627500Y-8977500D02*
G75*
G03*
X11627500Y-8977500I-20000J0D01*
G01*
X11670000Y-11050000D02*
G75*
G03*
X11670000Y-11050000I-20000J0D01*
G01*
X11777500Y-11050000D02*
G75*
G03*
X11777500Y-11050000I-20000J0D01*
G01*
X12110000Y-11380000D02*
G75*
G03*
X12110000Y-11380000I-20000J0D01*
G01*
X12207000Y-9169500D02*
G75*
G03*
X12207000Y-9169500I-20000J0D01*
G01*
X12212500Y-11737500D02*
G75*
G03*
X12212500Y-11737500I-20000J0D01*
G01*
X12217500Y-11380000D02*
G75*
G03*
X12217500Y-11380000I-20000J0D01*
G01*
X12314500Y-9169500D02*
G75*
G03*
X12314500Y-9169500I-20000J0D01*
G01*
X12320000Y-11737500D02*
G75*
G03*
X12320000Y-11737500I-20000J0D01*
G01*
X12395000Y-9712500D02*
G75*
G03*
X12395000Y-9712500I-20000J0D01*
G01*
X12445000Y-11382500D02*
G75*
G03*
X12445000Y-11382500I-20000J0D01*
G01*
X12502500Y-9712500D02*
G75*
G03*
X12502500Y-9712500I-20000J0D01*
G01*
X12552500Y-11382500D02*
G75*
G03*
X12552500Y-11382500I-20000J0D01*
G01*
X12685000Y-11347500D02*
G75*
G03*
X12685000Y-11347500I-20000J0D01*
G01*
X12685000Y-11455000D02*
G75*
G03*
X12685000Y-11455000I-20000J0D01*
G01*
X13168000Y-10202000D02*
G75*
G03*
X13168000Y-10202000I-20000J0D01*
G01*
X13253000Y-10687000D02*
G75*
G03*
X13253000Y-10687000I-20000J0D01*
G01*
X13387500Y-9642500D02*
G75*
G03*
X13387500Y-9642500I-20000J0D01*
G01*
X13388000Y-10022000D02*
G75*
G03*
X13388000Y-10022000I-20000J0D01*
G01*
X13495000Y-9642500D02*
G75*
G03*
X13495000Y-9642500I-20000J0D01*
G01*
X13732000Y-9146000D02*
G75*
G03*
X13732000Y-9146000I-20000J0D01*
G01*
X13752500Y-9970000D02*
G75*
G03*
X13752500Y-9970000I-20000J0D01*
G01*
X13860000Y-9970000D02*
G75*
G03*
X13860000Y-9970000I-20000J0D01*
G01*
X13988000Y-9148000D02*
G75*
G03*
X13988000Y-9148000I-20000J0D01*
G01*
X14195000Y-10927500D02*
G75*
G03*
X14195000Y-10927500I-20000J0D01*
G01*
X14195000Y-11035000D02*
G75*
G03*
X14195000Y-11035000I-20000J0D01*
G01*
X14228000Y-9670000D02*
G75*
G03*
X14228000Y-9670000I-20000J0D01*
G01*
X14308000Y-10982000D02*
G75*
G03*
X14308000Y-10982000I-20000J0D01*
G01*
X14400000Y-9602500D02*
G75*
G03*
X14400000Y-9602500I-20000J0D01*
G01*
X14412000Y-11129500D02*
G75*
G03*
X14412000Y-11129500I-20000J0D01*
G01*
X14468000Y-10412000D02*
G75*
G03*
X14468000Y-10412000I-20000J0D01*
G01*
X14507500Y-9602500D02*
G75*
G03*
X14507500Y-9602500I-20000J0D01*
G01*
X14538000Y-10282000D02*
G75*
G03*
X14538000Y-10282000I-20000J0D01*
G01*
X14577000Y-10462000D02*
G75*
G03*
X14577000Y-10462000I-20000J0D01*
G01*
X14628000Y-10152000D02*
G75*
G03*
X14628000Y-10152000I-20000J0D01*
G01*
X14658000Y-11312000D02*
G75*
G03*
X14658000Y-11312000I-20000J0D01*
G01*
X14728000Y-11212000D02*
G75*
G03*
X14728000Y-11212000I-20000J0D01*
G01*
X14858000Y-10072000D02*
G75*
G03*
X14858000Y-10072000I-20000J0D01*
G01*
X14922000Y-10416000D02*
G75*
G03*
X14922000Y-10416000I-20000J0D01*
G01*
X14948000Y-10802000D02*
G75*
G03*
X14948000Y-10802000I-20000J0D01*
G01*
X14958000Y-10012000D02*
G75*
G03*
X14958000Y-10012000I-20000J0D01*
G01*
X14982500Y-10555000D02*
G75*
G03*
X14982500Y-10555000I-20000J0D01*
G01*
X15018000Y-11712000D02*
G75*
G03*
X15018000Y-11712000I-20000J0D01*
G01*
X15090000Y-10555000D02*
G75*
G03*
X15090000Y-10555000I-20000J0D01*
G01*
X15200000Y-10735000D02*
G75*
G03*
X15200000Y-10735000I-20000J0D01*
G01*
X15200000Y-10842500D02*
G75*
G03*
X15200000Y-10842500I-20000J0D01*
G01*
X15231000Y-10055000D02*
G75*
G03*
X15231000Y-10055000I-20000J0D01*
G01*
X15267500Y-10327500D02*
G75*
G03*
X15267500Y-10327500I-20000J0D01*
G01*
X15267500Y-10435000D02*
G75*
G03*
X15267500Y-10435000I-20000J0D01*
G01*
X15291750Y-10208250D02*
G75*
G03*
X15291750Y-10208250I-20000J0D01*
G01*
X15617000Y-10054500D02*
G75*
G03*
X15617000Y-10054500I-20000J0D01*
G01*
X15617500Y-9567500D02*
G75*
G03*
X15617500Y-9567500I-20000J0D01*
G01*
X15617500Y-9675000D02*
G75*
G03*
X15617500Y-9675000I-20000J0D01*
G01*
X15778000Y-9732000D02*
G75*
G03*
X15778000Y-9732000I-20000J0D01*
G01*
X15860000Y-11185000D02*
G75*
G03*
X15860000Y-11185000I-20000J0D01*
G01*
X15960000Y-10982500D02*
G75*
G03*
X15960000Y-10982500I-20000J0D01*
G01*
X16067500Y-10982500D02*
G75*
G03*
X16067500Y-10982500I-20000J0D01*
G01*
X16149500Y-9159500D02*
G75*
G03*
X16149500Y-9159500I-20000J0D01*
G01*
X16449500Y-10862000D02*
G75*
G03*
X16449500Y-10862000I-20000J0D01*
G01*
X16450000Y-10976000D02*
G75*
G03*
X16450000Y-10976000I-20000J0D01*
G01*
X16858000Y-10452000D02*
G75*
G03*
X16858000Y-10452000I-20000J0D01*
G01*
X16907500Y-10965000D02*
G75*
G03*
X16907500Y-10965000I-20000J0D01*
G01*
X17015000Y-10965000D02*
G75*
G03*
X17015000Y-10965000I-20000J0D01*
G01*
X17177000Y-10612000D02*
G75*
G03*
X17177000Y-10612000I-20000J0D01*
G01*
X17277000Y-10612000D02*
G75*
G03*
X17277000Y-10612000I-20000J0D01*
G01*
X17559500Y-10617000D02*
G75*
G03*
X17559500Y-10617000I-20000J0D01*
G01*
X17565000Y-10962500D02*
G75*
G03*
X17565000Y-10962500I-20000J0D01*
G01*
X17647000Y-10089000D02*
G75*
G03*
X17647000Y-10089000I-20000J0D01*
G01*
X17647000Y-10184500D02*
G75*
G03*
X17647000Y-10184500I-20000J0D01*
G01*
X17649500Y-10617000D02*
G75*
G03*
X17649500Y-10617000I-20000J0D01*
G01*
X17672500Y-10962500D02*
G75*
G03*
X17672500Y-10962500I-20000J0D01*
G01*
X17757000Y-9534500D02*
G75*
G03*
X17757000Y-9534500I-20000J0D01*
G01*
X17797000Y-11442000D02*
G75*
G03*
X17797000Y-11442000I-20000J0D01*
G01*
X17799500Y-11809500D02*
G75*
G03*
X17799500Y-11809500I-20000J0D01*
G01*
X17944500Y-10874500D02*
G75*
G03*
X17944500Y-10874500I-20000J0D01*
G01*
X17944500Y-11017000D02*
G75*
G03*
X17944500Y-11017000I-20000J0D01*
G01*
X18099500Y-9309500D02*
G75*
G03*
X18099500Y-9309500I-20000J0D01*
G01*
X18099500Y-9534500D02*
G75*
G03*
X18099500Y-9534500I-20000J0D01*
G01*
X18101000Y-10084000D02*
G75*
G03*
X18101000Y-10084000I-20000J0D01*
G01*
X18102000Y-10179500D02*
G75*
G03*
X18102000Y-10179500I-20000J0D01*
G01*
X18107000Y-11082000D02*
G75*
G03*
X18107000Y-11082000I-20000J0D01*
G01*
X18197000Y-11227000D02*
G75*
G03*
X18197000Y-11227000I-20000J0D01*
G01*
X18197000Y-11392000D02*
G75*
G03*
X18197000Y-11392000I-20000J0D01*
G01*
X18212500Y-8862500D02*
G75*
G03*
X18212500Y-8862500I-20000J0D01*
G01*
X18212500Y-8970000D02*
G75*
G03*
X18212500Y-8970000I-20000J0D01*
G01*
X18232000Y-11917000D02*
G75*
G03*
X18232000Y-11917000I-20000J0D01*
G01*
X18232000Y-12042000D02*
G75*
G03*
X18232000Y-12042000I-20000J0D01*
G01*
X12876000Y-10159000D02*
X12876000Y-10239000D01*
X12836000Y-10199000D02*
X12916000Y-10199000D01*
X12876000Y-10647000D02*
X12876000Y-10727000D01*
X12836000Y-10687000D02*
X12916000Y-10687000D01*
X17777489Y-11257000D02*
X17777489Y-11337000D01*
X17737489Y-11297000D02*
X17817489Y-11297000D01*
X18027489Y-11257000D02*
X18027489Y-11337000D01*
X17987489Y-11297000D02*
X18067489Y-11297000D01*
X11685856Y-10097356D02*
X11685856Y-10026644D01*
X11615144Y-10026644D01*
X11615144Y-10097356D01*
X11685856Y-10097356D01*
X11685856Y-10351356D02*
X11685856Y-10280644D01*
X11615144Y-10280644D01*
X11615144Y-10351356D01*
X11685856Y-10351356D01*
X11685856Y-10605356D02*
X11685856Y-10534644D01*
X11615144Y-10534644D01*
X11615144Y-10605356D01*
X11685856Y-10605356D01*
X11685856Y-10859356D02*
X11685856Y-10788644D01*
X11615144Y-10788644D01*
X11615144Y-10859356D01*
X11685856Y-10859356D01*
X11969356Y-8954356D02*
X11969356Y-8883644D01*
X11898644Y-8883644D01*
X11898644Y-8954356D01*
X11969356Y-8954356D01*
X11972356Y-12002356D02*
X11972356Y-11931644D01*
X11901644Y-11931644D01*
X11901644Y-12002356D01*
X11972356Y-12002356D01*
X12223356Y-8954356D02*
X12223356Y-8883644D01*
X12152644Y-8883644D01*
X12152644Y-8954356D01*
X12223356Y-8954356D01*
X12226356Y-12002356D02*
X12226356Y-11931644D01*
X12155644Y-11931644D01*
X12155644Y-12002356D01*
X12226356Y-12002356D01*
X12477356Y-8954356D02*
X12477356Y-8883644D01*
X12406644Y-8883644D01*
X12406644Y-8954356D01*
X12477356Y-8954356D01*
X12480356Y-12002356D02*
X12480356Y-11931644D01*
X12409644Y-11931644D01*
X12409644Y-12002356D01*
X12480356Y-12002356D01*
X12731356Y-8954356D02*
X12731356Y-8883644D01*
X12660644Y-8883644D01*
X12660644Y-8954356D01*
X12731356Y-8954356D01*
X12734356Y-12002356D02*
X12734356Y-11931644D01*
X12663644Y-11931644D01*
X12663644Y-12002356D01*
X12734356Y-12002356D01*
X12985356Y-8954356D02*
X12985356Y-8883644D01*
X12914644Y-8883644D01*
X12914644Y-8954356D01*
X12985356Y-8954356D01*
X12988356Y-12002356D02*
X12988356Y-11931644D01*
X12917644Y-11931644D01*
X12917644Y-12002356D01*
X12988356Y-12002356D01*
X13239356Y-8954356D02*
X13239356Y-8883644D01*
X13168644Y-8883644D01*
X13168644Y-8954356D01*
X13239356Y-8954356D01*
X13242356Y-12002356D02*
X13242356Y-11931644D01*
X13171644Y-11931644D01*
X13171644Y-12002356D01*
X13242356Y-12002356D01*
X13493356Y-8954356D02*
X13493356Y-8883644D01*
X13422644Y-8883644D01*
X13422644Y-8954356D01*
X13493356Y-8954356D01*
X13496356Y-12002356D02*
X13496356Y-11931644D01*
X13425644Y-11931644D01*
X13425644Y-12002356D01*
X13496356Y-12002356D01*
X13747356Y-8954356D02*
X13747356Y-8883644D01*
X13676644Y-8883644D01*
X13676644Y-8954356D01*
X13747356Y-8954356D01*
X13750356Y-12002356D02*
X13750356Y-11931644D01*
X13679644Y-11931644D01*
X13679644Y-12002356D01*
X13750356Y-12002356D01*
X14001356Y-8954356D02*
X14001356Y-8883644D01*
X13930644Y-8883644D01*
X13930644Y-8954356D01*
X14001356Y-8954356D01*
X14004356Y-12002356D02*
X14004356Y-11931644D01*
X13933644Y-11931644D01*
X13933644Y-12002356D01*
X14004356Y-12002356D01*
X14255356Y-8954356D02*
X14255356Y-8883644D01*
X14184644Y-8883644D01*
X14184644Y-8954356D01*
X14255356Y-8954356D01*
X14258356Y-12002356D02*
X14258356Y-11931644D01*
X14187644Y-11931644D01*
X14187644Y-12002356D01*
X14258356Y-12002356D01*
X14509356Y-8954356D02*
X14509356Y-8883644D01*
X14438644Y-8883644D01*
X14438644Y-8954356D01*
X14509356Y-8954356D01*
X14512356Y-12002356D02*
X14512356Y-11931644D01*
X14441644Y-11931644D01*
X14441644Y-12002356D01*
X14512356Y-12002356D01*
X14763356Y-8954356D02*
X14763356Y-8883644D01*
X14692644Y-8883644D01*
X14692644Y-8954356D01*
X14763356Y-8954356D01*
X14766356Y-12002356D02*
X14766356Y-11931644D01*
X14695644Y-11931644D01*
X14695644Y-12002356D01*
X14766356Y-12002356D01*
X15017356Y-8954356D02*
X15017356Y-8883644D01*
X14946644Y-8883644D01*
X14946644Y-8954356D01*
X15017356Y-8954356D01*
X15020356Y-12002356D02*
X15020356Y-11931644D01*
X14949644Y-11931644D01*
X14949644Y-12002356D01*
X15020356Y-12002356D01*
X15271356Y-8954356D02*
X15271356Y-8883644D01*
X15200644Y-8883644D01*
X15200644Y-8954356D01*
X15271356Y-8954356D01*
X15274356Y-12002356D02*
X15274356Y-11931644D01*
X15203644Y-11931644D01*
X15203644Y-12002356D01*
X15274356Y-12002356D01*
X15525356Y-8954356D02*
X15525356Y-8883644D01*
X15454644Y-8883644D01*
X15454644Y-8954356D01*
X15525356Y-8954356D01*
X15528356Y-12002356D02*
X15528356Y-11931644D01*
X15457644Y-11931644D01*
X15457644Y-12002356D01*
X15528356Y-12002356D01*
X15779356Y-8954356D02*
X15779356Y-8883644D01*
X15708644Y-8883644D01*
X15708644Y-8954356D01*
X15779356Y-8954356D01*
X15782356Y-12002356D02*
X15782356Y-11931644D01*
X15711644Y-11931644D01*
X15711644Y-12002356D01*
X15782356Y-12002356D01*
X16033356Y-8954356D02*
X16033356Y-8883644D01*
X15962644Y-8883644D01*
X15962644Y-8954356D01*
X16033356Y-8954356D01*
X16036356Y-12002356D02*
X16036356Y-11931644D01*
X15965644Y-11931644D01*
X15965644Y-12002356D01*
X16036356Y-12002356D01*
X16287356Y-8954356D02*
X16287356Y-8883644D01*
X16216644Y-8883644D01*
X16216644Y-8954356D01*
X16287356Y-8954356D01*
X16290356Y-12002356D02*
X16290356Y-11931644D01*
X16219644Y-11931644D01*
X16219644Y-12002356D01*
X16290356Y-12002356D01*
X16541356Y-8954356D02*
X16541356Y-8883644D01*
X16470644Y-8883644D01*
X16470644Y-8954356D01*
X16541356Y-8954356D01*
X16544356Y-12002356D02*
X16544356Y-11931644D01*
X16473644Y-11931644D01*
X16473644Y-12002356D01*
X16544356Y-12002356D01*
X16795356Y-8954356D02*
X16795356Y-8883644D01*
X16724644Y-8883644D01*
X16724644Y-8954356D01*
X16795356Y-8954356D01*
X16798356Y-12002356D02*
X16798356Y-11931644D01*
X16727644Y-11931644D01*
X16727644Y-12002356D01*
X16798356Y-12002356D01*
X17049356Y-8954356D02*
X17049356Y-8883644D01*
X16978644Y-8883644D01*
X16978644Y-8954356D01*
X17049356Y-8954356D01*
X17052356Y-12002356D02*
X17052356Y-11931644D01*
X16981644Y-11931644D01*
X16981644Y-12002356D01*
X17052356Y-12002356D01*
X17303356Y-8954356D02*
X17303356Y-8883644D01*
X17232644Y-8883644D01*
X17232644Y-8954356D01*
X17303356Y-8954356D01*
X17306356Y-12002356D02*
X17306356Y-11931644D01*
X17235644Y-11931644D01*
X17235644Y-12002356D01*
X17306356Y-12002356D01*
X17557356Y-8954356D02*
X17557356Y-8883644D01*
X17486644Y-8883644D01*
X17486644Y-8954356D01*
X17557356Y-8954356D01*
X17560356Y-12002356D02*
X17560356Y-11931644D01*
X17489644Y-11931644D01*
X17489644Y-12002356D01*
X17560356Y-12002356D01*
X17811356Y-8954356D02*
X17811356Y-8883644D01*
X17740644Y-8883644D01*
X17740644Y-8954356D01*
X17811356Y-8954356D01*
X17814356Y-12002356D02*
X17814356Y-11931644D01*
X17743644Y-11931644D01*
X17743644Y-12002356D01*
X17814356Y-12002356D01*
X18065356Y-8954356D02*
X18065356Y-8883644D01*
X17994644Y-8883644D01*
X17994644Y-8954356D01*
X18065356Y-8954356D01*
X18068356Y-12002356D02*
X18068356Y-11931644D01*
X17997644Y-11931644D01*
X17997644Y-12002356D01*
X18068356Y-12002356D01*
D11*
X11655777Y-12555484D02*
X11655777Y-12355484D01*
X11655777Y-12355484D02*
X11703396Y-12355484D01*
X11703396Y-12355484D02*
X11731967Y-12365008D01*
X11731967Y-12365008D02*
X11751015Y-12384055D01*
X11751015Y-12384055D02*
X11760539Y-12403103D01*
X11760539Y-12403103D02*
X11770062Y-12441198D01*
X11770062Y-12441198D02*
X11770062Y-12469769D01*
X11770062Y-12469769D02*
X11760539Y-12507865D01*
X11760539Y-12507865D02*
X11751015Y-12526912D01*
X11751015Y-12526912D02*
X11731967Y-12545960D01*
X11731967Y-12545960D02*
X11703396Y-12555484D01*
X11703396Y-12555484D02*
X11655777Y-12555484D01*
X11855777Y-12555484D02*
X11855777Y-12422150D01*
X11855777Y-12460246D02*
X11865301Y-12441198D01*
X11865301Y-12441198D02*
X11874824Y-12431674D01*
X11874824Y-12431674D02*
X11893872Y-12422150D01*
X11893872Y-12422150D02*
X11912920Y-12422150D01*
X11979586Y-12555484D02*
X11979586Y-12422150D01*
X11979586Y-12355484D02*
X11970062Y-12365008D01*
X11970062Y-12365008D02*
X11979586Y-12374531D01*
X11979586Y-12374531D02*
X11989110Y-12365008D01*
X11989110Y-12365008D02*
X11979586Y-12355484D01*
X11979586Y-12355484D02*
X11979586Y-12374531D01*
X12103396Y-12555484D02*
X12084348Y-12545960D01*
X12084348Y-12545960D02*
X12074824Y-12526912D01*
X12074824Y-12526912D02*
X12074824Y-12355484D01*
X12208158Y-12555484D02*
X12189110Y-12545960D01*
X12189110Y-12545960D02*
X12179586Y-12526912D01*
X12179586Y-12526912D02*
X12179586Y-12355484D01*
X12436729Y-12555484D02*
X12436729Y-12355484D01*
X12436729Y-12355484D02*
X12503396Y-12498341D01*
X12503396Y-12498341D02*
X12570062Y-12355484D01*
X12570062Y-12355484D02*
X12570062Y-12555484D01*
X12751015Y-12555484D02*
X12751015Y-12450722D01*
X12751015Y-12450722D02*
X12741491Y-12431674D01*
X12741491Y-12431674D02*
X12722443Y-12422150D01*
X12722443Y-12422150D02*
X12684348Y-12422150D01*
X12684348Y-12422150D02*
X12665301Y-12431674D01*
X12751015Y-12545960D02*
X12731967Y-12555484D01*
X12731967Y-12555484D02*
X12684348Y-12555484D01*
X12684348Y-12555484D02*
X12665301Y-12545960D01*
X12665301Y-12545960D02*
X12655777Y-12526912D01*
X12655777Y-12526912D02*
X12655777Y-12507865D01*
X12655777Y-12507865D02*
X12665301Y-12488817D01*
X12665301Y-12488817D02*
X12684348Y-12479293D01*
X12684348Y-12479293D02*
X12731967Y-12479293D01*
X12731967Y-12479293D02*
X12751015Y-12469769D01*
X12846253Y-12422150D02*
X12846253Y-12622150D01*
X12846253Y-12431674D02*
X12865301Y-12422150D01*
X12865301Y-12422150D02*
X12903396Y-12422150D01*
X12903396Y-12422150D02*
X12922443Y-12431674D01*
X12922443Y-12431674D02*
X12931967Y-12441198D01*
X12931967Y-12441198D02*
X12941491Y-12460246D01*
X12941491Y-12460246D02*
X12941491Y-12517388D01*
X12941491Y-12517388D02*
X12931967Y-12536436D01*
X12931967Y-12536436D02*
X12922443Y-12545960D01*
X12922443Y-12545960D02*
X12903396Y-12555484D01*
X12903396Y-12555484D02*
X12865301Y-12555484D01*
X12865301Y-12555484D02*
X12846253Y-12545960D01*
X13027205Y-12536436D02*
X13036729Y-12545960D01*
X13036729Y-12545960D02*
X13027205Y-12555484D01*
X13027205Y-12555484D02*
X13017682Y-12545960D01*
X13017682Y-12545960D02*
X13027205Y-12536436D01*
X13027205Y-12536436D02*
X13027205Y-12555484D01*
X13027205Y-12431674D02*
X13036729Y-12441198D01*
X13036729Y-12441198D02*
X13027205Y-12450722D01*
X13027205Y-12450722D02*
X13017682Y-12441198D01*
X13017682Y-12441198D02*
X13027205Y-12431674D01*
X13027205Y-12431674D02*
X13027205Y-12450722D01*
D10*
X11365000Y-12869000D02*
X11395000Y-12899000D01*
X11395000Y-12869000D02*
X11365000Y-12899000D01*
D11*
X11693872Y-12775484D02*
X11712920Y-12775484D01*
X11712920Y-12775484D02*
X11731967Y-12785008D01*
X11731967Y-12785008D02*
X11741491Y-12794531D01*
X11741491Y-12794531D02*
X11751015Y-12813579D01*
X11751015Y-12813579D02*
X11760539Y-12851674D01*
X11760539Y-12851674D02*
X11760539Y-12899293D01*
X11760539Y-12899293D02*
X11751015Y-12937388D01*
X11751015Y-12937388D02*
X11741491Y-12956436D01*
X11741491Y-12956436D02*
X11731967Y-12965960D01*
X11731967Y-12965960D02*
X11712920Y-12975484D01*
X11712920Y-12975484D02*
X11693872Y-12975484D01*
X11693872Y-12975484D02*
X11674824Y-12965960D01*
X11674824Y-12965960D02*
X11665301Y-12956436D01*
X11665301Y-12956436D02*
X11655777Y-12937388D01*
X11655777Y-12937388D02*
X11646253Y-12899293D01*
X11646253Y-12899293D02*
X11646253Y-12851674D01*
X11646253Y-12851674D02*
X11655777Y-12813579D01*
X11655777Y-12813579D02*
X11665301Y-12794531D01*
X11665301Y-12794531D02*
X11674824Y-12785008D01*
X11674824Y-12785008D02*
X11693872Y-12775484D01*
X11846253Y-12956436D02*
X11855777Y-12965960D01*
X11855777Y-12965960D02*
X11846253Y-12975484D01*
X11846253Y-12975484D02*
X11836729Y-12965960D01*
X11836729Y-12965960D02*
X11846253Y-12956436D01*
X11846253Y-12956436D02*
X11846253Y-12975484D01*
X11922443Y-12775484D02*
X12046253Y-12775484D01*
X12046253Y-12775484D02*
X11979586Y-12851674D01*
X11979586Y-12851674D02*
X12008158Y-12851674D01*
X12008158Y-12851674D02*
X12027205Y-12861198D01*
X12027205Y-12861198D02*
X12036729Y-12870722D01*
X12036729Y-12870722D02*
X12046253Y-12889769D01*
X12046253Y-12889769D02*
X12046253Y-12937388D01*
X12046253Y-12937388D02*
X12036729Y-12956436D01*
X12036729Y-12956436D02*
X12027205Y-12965960D01*
X12027205Y-12965960D02*
X12008158Y-12975484D01*
X12008158Y-12975484D02*
X11951015Y-12975484D01*
X11951015Y-12975484D02*
X11931967Y-12965960D01*
X11931967Y-12965960D02*
X11922443Y-12956436D01*
X12170062Y-12775484D02*
X12189110Y-12775484D01*
X12189110Y-12775484D02*
X12208158Y-12785008D01*
X12208158Y-12785008D02*
X12217682Y-12794531D01*
X12217682Y-12794531D02*
X12227205Y-12813579D01*
X12227205Y-12813579D02*
X12236729Y-12851674D01*
X12236729Y-12851674D02*
X12236729Y-12899293D01*
X12236729Y-12899293D02*
X12227205Y-12937388D01*
X12227205Y-12937388D02*
X12217682Y-12956436D01*
X12217682Y-12956436D02*
X12208158Y-12965960D01*
X12208158Y-12965960D02*
X12189110Y-12975484D01*
X12189110Y-12975484D02*
X12170062Y-12975484D01*
X12170062Y-12975484D02*
X12151015Y-12965960D01*
X12151015Y-12965960D02*
X12141491Y-12956436D01*
X12141491Y-12956436D02*
X12131967Y-12937388D01*
X12131967Y-12937388D02*
X12122443Y-12899293D01*
X12122443Y-12899293D02*
X12122443Y-12851674D01*
X12122443Y-12851674D02*
X12131967Y-12813579D01*
X12131967Y-12813579D02*
X12141491Y-12794531D01*
X12141491Y-12794531D02*
X12151015Y-12785008D01*
X12151015Y-12785008D02*
X12170062Y-12775484D01*
X12360539Y-12775484D02*
X12379586Y-12775484D01*
X12379586Y-12775484D02*
X12398634Y-12785008D01*
X12398634Y-12785008D02*
X12408158Y-12794531D01*
X12408158Y-12794531D02*
X12417682Y-12813579D01*
X12417682Y-12813579D02*
X12427205Y-12851674D01*
X12427205Y-12851674D02*
X12427205Y-12899293D01*
X12427205Y-12899293D02*
X12417682Y-12937388D01*
X12417682Y-12937388D02*
X12408158Y-12956436D01*
X12408158Y-12956436D02*
X12398634Y-12965960D01*
X12398634Y-12965960D02*
X12379586Y-12975484D01*
X12379586Y-12975484D02*
X12360539Y-12975484D01*
X12360539Y-12975484D02*
X12341491Y-12965960D01*
X12341491Y-12965960D02*
X12331967Y-12956436D01*
X12331967Y-12956436D02*
X12322443Y-12937388D01*
X12322443Y-12937388D02*
X12312920Y-12899293D01*
X12312920Y-12899293D02*
X12312920Y-12851674D01*
X12312920Y-12851674D02*
X12322443Y-12813579D01*
X12322443Y-12813579D02*
X12331967Y-12794531D01*
X12331967Y-12794531D02*
X12341491Y-12785008D01*
X12341491Y-12785008D02*
X12360539Y-12775484D01*
X12512920Y-12975484D02*
X12512920Y-12842150D01*
X12512920Y-12861198D02*
X12522443Y-12851674D01*
X12522443Y-12851674D02*
X12541491Y-12842150D01*
X12541491Y-12842150D02*
X12570063Y-12842150D01*
X12570063Y-12842150D02*
X12589110Y-12851674D01*
X12589110Y-12851674D02*
X12598634Y-12870722D01*
X12598634Y-12870722D02*
X12598634Y-12975484D01*
X12598634Y-12870722D02*
X12608158Y-12851674D01*
X12608158Y-12851674D02*
X12627205Y-12842150D01*
X12627205Y-12842150D02*
X12655777Y-12842150D01*
X12655777Y-12842150D02*
X12674824Y-12851674D01*
X12674824Y-12851674D02*
X12684348Y-12870722D01*
X12684348Y-12870722D02*
X12684348Y-12975484D01*
X12779586Y-12975484D02*
X12779586Y-12842150D01*
X12779586Y-12861198D02*
X12789110Y-12851674D01*
X12789110Y-12851674D02*
X12808158Y-12842150D01*
X12808158Y-12842150D02*
X12836729Y-12842150D01*
X12836729Y-12842150D02*
X12855777Y-12851674D01*
X12855777Y-12851674D02*
X12865301Y-12870722D01*
X12865301Y-12870722D02*
X12865301Y-12975484D01*
X12865301Y-12870722D02*
X12874824Y-12851674D01*
X12874824Y-12851674D02*
X12893872Y-12842150D01*
X12893872Y-12842150D02*
X12922443Y-12842150D01*
X12922443Y-12842150D02*
X12941491Y-12851674D01*
X12941491Y-12851674D02*
X12951015Y-12870722D01*
X12951015Y-12870722D02*
X12951015Y-12975484D01*
X13341491Y-12765960D02*
X13170063Y-13023103D01*
X13598634Y-12775484D02*
X13617682Y-12775484D01*
X13617682Y-12775484D02*
X13636729Y-12785008D01*
X13636729Y-12785008D02*
X13646253Y-12794531D01*
X13646253Y-12794531D02*
X13655777Y-12813579D01*
X13655777Y-12813579D02*
X13665301Y-12851674D01*
X13665301Y-12851674D02*
X13665301Y-12899293D01*
X13665301Y-12899293D02*
X13655777Y-12937388D01*
X13655777Y-12937388D02*
X13646253Y-12956436D01*
X13646253Y-12956436D02*
X13636729Y-12965960D01*
X13636729Y-12965960D02*
X13617682Y-12975484D01*
X13617682Y-12975484D02*
X13598634Y-12975484D01*
X13598634Y-12975484D02*
X13579586Y-12965960D01*
X13579586Y-12965960D02*
X13570063Y-12956436D01*
X13570063Y-12956436D02*
X13560539Y-12937388D01*
X13560539Y-12937388D02*
X13551015Y-12899293D01*
X13551015Y-12899293D02*
X13551015Y-12851674D01*
X13551015Y-12851674D02*
X13560539Y-12813579D01*
X13560539Y-12813579D02*
X13570063Y-12794531D01*
X13570063Y-12794531D02*
X13579586Y-12785008D01*
X13579586Y-12785008D02*
X13598634Y-12775484D01*
X13751015Y-12956436D02*
X13760539Y-12965960D01*
X13760539Y-12965960D02*
X13751015Y-12975484D01*
X13751015Y-12975484D02*
X13741491Y-12965960D01*
X13741491Y-12965960D02*
X13751015Y-12956436D01*
X13751015Y-12956436D02*
X13751015Y-12975484D01*
X13884348Y-12775484D02*
X13903396Y-12775484D01*
X13903396Y-12775484D02*
X13922444Y-12785008D01*
X13922444Y-12785008D02*
X13931967Y-12794531D01*
X13931967Y-12794531D02*
X13941491Y-12813579D01*
X13941491Y-12813579D02*
X13951015Y-12851674D01*
X13951015Y-12851674D02*
X13951015Y-12899293D01*
X13951015Y-12899293D02*
X13941491Y-12937388D01*
X13941491Y-12937388D02*
X13931967Y-12956436D01*
X13931967Y-12956436D02*
X13922444Y-12965960D01*
X13922444Y-12965960D02*
X13903396Y-12975484D01*
X13903396Y-12975484D02*
X13884348Y-12975484D01*
X13884348Y-12975484D02*
X13865301Y-12965960D01*
X13865301Y-12965960D02*
X13855777Y-12956436D01*
X13855777Y-12956436D02*
X13846253Y-12937388D01*
X13846253Y-12937388D02*
X13836729Y-12899293D01*
X13836729Y-12899293D02*
X13836729Y-12851674D01*
X13836729Y-12851674D02*
X13846253Y-12813579D01*
X13846253Y-12813579D02*
X13855777Y-12794531D01*
X13855777Y-12794531D02*
X13865301Y-12785008D01*
X13865301Y-12785008D02*
X13884348Y-12775484D01*
X14141491Y-12975484D02*
X14027206Y-12975484D01*
X14084348Y-12975484D02*
X14084348Y-12775484D01*
X14084348Y-12775484D02*
X14065301Y-12804055D01*
X14065301Y-12804055D02*
X14046253Y-12823103D01*
X14046253Y-12823103D02*
X14027206Y-12832627D01*
X14331967Y-12975484D02*
X14217682Y-12975484D01*
X14274825Y-12975484D02*
X14274825Y-12775484D01*
X14274825Y-12775484D02*
X14255777Y-12804055D01*
X14255777Y-12804055D02*
X14236729Y-12823103D01*
X14236729Y-12823103D02*
X14217682Y-12832627D01*
X14446253Y-12861198D02*
X14427206Y-12851674D01*
X14427206Y-12851674D02*
X14417682Y-12842150D01*
X14417682Y-12842150D02*
X14408158Y-12823103D01*
X14408158Y-12823103D02*
X14408158Y-12813579D01*
X14408158Y-12813579D02*
X14417682Y-12794531D01*
X14417682Y-12794531D02*
X14427206Y-12785008D01*
X14427206Y-12785008D02*
X14446253Y-12775484D01*
X14446253Y-12775484D02*
X14484348Y-12775484D01*
X14484348Y-12775484D02*
X14503396Y-12785008D01*
X14503396Y-12785008D02*
X14512920Y-12794531D01*
X14512920Y-12794531D02*
X14522444Y-12813579D01*
X14522444Y-12813579D02*
X14522444Y-12823103D01*
X14522444Y-12823103D02*
X14512920Y-12842150D01*
X14512920Y-12842150D02*
X14503396Y-12851674D01*
X14503396Y-12851674D02*
X14484348Y-12861198D01*
X14484348Y-12861198D02*
X14446253Y-12861198D01*
X14446253Y-12861198D02*
X14427206Y-12870722D01*
X14427206Y-12870722D02*
X14417682Y-12880246D01*
X14417682Y-12880246D02*
X14408158Y-12899293D01*
X14408158Y-12899293D02*
X14408158Y-12937388D01*
X14408158Y-12937388D02*
X14417682Y-12956436D01*
X14417682Y-12956436D02*
X14427206Y-12965960D01*
X14427206Y-12965960D02*
X14446253Y-12975484D01*
X14446253Y-12975484D02*
X14484348Y-12975484D01*
X14484348Y-12975484D02*
X14503396Y-12965960D01*
X14503396Y-12965960D02*
X14512920Y-12956436D01*
X14512920Y-12956436D02*
X14522444Y-12937388D01*
X14522444Y-12937388D02*
X14522444Y-12899293D01*
X14522444Y-12899293D02*
X14512920Y-12880246D01*
X14512920Y-12880246D02*
X14503396Y-12870722D01*
X14503396Y-12870722D02*
X14484348Y-12861198D01*
X14598634Y-12775484D02*
X14598634Y-12813579D01*
X14674825Y-12775484D02*
X14674825Y-12813579D01*
X14970063Y-13051674D02*
X14960539Y-13042150D01*
X14960539Y-13042150D02*
X14941491Y-13013579D01*
X14941491Y-13013579D02*
X14931968Y-12994531D01*
X14931968Y-12994531D02*
X14922444Y-12965960D01*
X14922444Y-12965960D02*
X14912920Y-12918341D01*
X14912920Y-12918341D02*
X14912920Y-12880246D01*
X14912920Y-12880246D02*
X14922444Y-12832627D01*
X14922444Y-12832627D02*
X14931968Y-12804055D01*
X14931968Y-12804055D02*
X14941491Y-12785008D01*
X14941491Y-12785008D02*
X14960539Y-12756436D01*
X14960539Y-12756436D02*
X14970063Y-12746912D01*
X15036729Y-12794531D02*
X15046253Y-12785008D01*
X15046253Y-12785008D02*
X15065301Y-12775484D01*
X15065301Y-12775484D02*
X15112920Y-12775484D01*
X15112920Y-12775484D02*
X15131968Y-12785008D01*
X15131968Y-12785008D02*
X15141491Y-12794531D01*
X15141491Y-12794531D02*
X15151015Y-12813579D01*
X15151015Y-12813579D02*
X15151015Y-12832627D01*
X15151015Y-12832627D02*
X15141491Y-12861198D01*
X15141491Y-12861198D02*
X15027206Y-12975484D01*
X15027206Y-12975484D02*
X15151015Y-12975484D01*
X15389110Y-12975484D02*
X15389110Y-12775484D01*
X15474825Y-12975484D02*
X15474825Y-12870722D01*
X15474825Y-12870722D02*
X15465301Y-12851674D01*
X15465301Y-12851674D02*
X15446253Y-12842150D01*
X15446253Y-12842150D02*
X15417682Y-12842150D01*
X15417682Y-12842150D02*
X15398634Y-12851674D01*
X15398634Y-12851674D02*
X15389110Y-12861198D01*
X15598634Y-12975484D02*
X15579587Y-12965960D01*
X15579587Y-12965960D02*
X15570063Y-12956436D01*
X15570063Y-12956436D02*
X15560539Y-12937388D01*
X15560539Y-12937388D02*
X15560539Y-12880246D01*
X15560539Y-12880246D02*
X15570063Y-12861198D01*
X15570063Y-12861198D02*
X15579587Y-12851674D01*
X15579587Y-12851674D02*
X15598634Y-12842150D01*
X15598634Y-12842150D02*
X15627206Y-12842150D01*
X15627206Y-12842150D02*
X15646253Y-12851674D01*
X15646253Y-12851674D02*
X15655777Y-12861198D01*
X15655777Y-12861198D02*
X15665301Y-12880246D01*
X15665301Y-12880246D02*
X15665301Y-12937388D01*
X15665301Y-12937388D02*
X15655777Y-12956436D01*
X15655777Y-12956436D02*
X15646253Y-12965960D01*
X15646253Y-12965960D02*
X15627206Y-12975484D01*
X15627206Y-12975484D02*
X15598634Y-12975484D01*
X15779587Y-12975484D02*
X15760539Y-12965960D01*
X15760539Y-12965960D02*
X15751015Y-12946912D01*
X15751015Y-12946912D02*
X15751015Y-12775484D01*
X15931968Y-12965960D02*
X15912920Y-12975484D01*
X15912920Y-12975484D02*
X15874825Y-12975484D01*
X15874825Y-12975484D02*
X15855777Y-12965960D01*
X15855777Y-12965960D02*
X15846253Y-12946912D01*
X15846253Y-12946912D02*
X15846253Y-12870722D01*
X15846253Y-12870722D02*
X15855777Y-12851674D01*
X15855777Y-12851674D02*
X15874825Y-12842150D01*
X15874825Y-12842150D02*
X15912920Y-12842150D01*
X15912920Y-12842150D02*
X15931968Y-12851674D01*
X15931968Y-12851674D02*
X15941491Y-12870722D01*
X15941491Y-12870722D02*
X15941491Y-12889769D01*
X15941491Y-12889769D02*
X15846253Y-12908817D01*
X16017682Y-12965960D02*
X16036730Y-12975484D01*
X16036730Y-12975484D02*
X16074825Y-12975484D01*
X16074825Y-12975484D02*
X16093872Y-12965960D01*
X16093872Y-12965960D02*
X16103396Y-12946912D01*
X16103396Y-12946912D02*
X16103396Y-12937388D01*
X16103396Y-12937388D02*
X16093872Y-12918341D01*
X16093872Y-12918341D02*
X16074825Y-12908817D01*
X16074825Y-12908817D02*
X16046253Y-12908817D01*
X16046253Y-12908817D02*
X16027206Y-12899293D01*
X16027206Y-12899293D02*
X16017682Y-12880246D01*
X16017682Y-12880246D02*
X16017682Y-12870722D01*
X16017682Y-12870722D02*
X16027206Y-12851674D01*
X16027206Y-12851674D02*
X16046253Y-12842150D01*
X16046253Y-12842150D02*
X16074825Y-12842150D01*
X16074825Y-12842150D02*
X16093872Y-12851674D01*
X16170063Y-13051674D02*
X16179587Y-13042150D01*
X16179587Y-13042150D02*
X16198634Y-13013579D01*
X16198634Y-13013579D02*
X16208158Y-12994531D01*
X16208158Y-12994531D02*
X16217682Y-12965960D01*
X16217682Y-12965960D02*
X16227206Y-12918341D01*
X16227206Y-12918341D02*
X16227206Y-12880246D01*
X16227206Y-12880246D02*
X16217682Y-12832627D01*
X16217682Y-12832627D02*
X16208158Y-12804055D01*
X16208158Y-12804055D02*
X16198634Y-12785008D01*
X16198634Y-12785008D02*
X16179587Y-12756436D01*
X16179587Y-12756436D02*
X16170063Y-12746912D01*
D10*
X11395000Y-13148000D02*
G75*
G03*
X11395000Y-13148000I-20000J0D01*
G01*
D11*
X11693872Y-13039484D02*
X11712920Y-13039484D01*
X11712920Y-13039484D02*
X11731967Y-13049008D01*
X11731967Y-13049008D02*
X11741491Y-13058531D01*
X11741491Y-13058531D02*
X11751015Y-13077579D01*
X11751015Y-13077579D02*
X11760539Y-13115674D01*
X11760539Y-13115674D02*
X11760539Y-13163293D01*
X11760539Y-13163293D02*
X11751015Y-13201388D01*
X11751015Y-13201388D02*
X11741491Y-13220436D01*
X11741491Y-13220436D02*
X11731967Y-13229960D01*
X11731967Y-13229960D02*
X11712920Y-13239484D01*
X11712920Y-13239484D02*
X11693872Y-13239484D01*
X11693872Y-13239484D02*
X11674824Y-13229960D01*
X11674824Y-13229960D02*
X11665301Y-13220436D01*
X11665301Y-13220436D02*
X11655777Y-13201388D01*
X11655777Y-13201388D02*
X11646253Y-13163293D01*
X11646253Y-13163293D02*
X11646253Y-13115674D01*
X11646253Y-13115674D02*
X11655777Y-13077579D01*
X11655777Y-13077579D02*
X11665301Y-13058531D01*
X11665301Y-13058531D02*
X11674824Y-13049008D01*
X11674824Y-13049008D02*
X11693872Y-13039484D01*
X11846253Y-13220436D02*
X11855777Y-13229960D01*
X11855777Y-13229960D02*
X11846253Y-13239484D01*
X11846253Y-13239484D02*
X11836729Y-13229960D01*
X11836729Y-13229960D02*
X11846253Y-13220436D01*
X11846253Y-13220436D02*
X11846253Y-13239484D01*
X12027205Y-13106150D02*
X12027205Y-13239484D01*
X11979586Y-13029960D02*
X11931967Y-13172817D01*
X11931967Y-13172817D02*
X12055777Y-13172817D01*
X12170062Y-13039484D02*
X12189110Y-13039484D01*
X12189110Y-13039484D02*
X12208158Y-13049008D01*
X12208158Y-13049008D02*
X12217682Y-13058531D01*
X12217682Y-13058531D02*
X12227205Y-13077579D01*
X12227205Y-13077579D02*
X12236729Y-13115674D01*
X12236729Y-13115674D02*
X12236729Y-13163293D01*
X12236729Y-13163293D02*
X12227205Y-13201388D01*
X12227205Y-13201388D02*
X12217682Y-13220436D01*
X12217682Y-13220436D02*
X12208158Y-13229960D01*
X12208158Y-13229960D02*
X12189110Y-13239484D01*
X12189110Y-13239484D02*
X12170062Y-13239484D01*
X12170062Y-13239484D02*
X12151015Y-13229960D01*
X12151015Y-13229960D02*
X12141491Y-13220436D01*
X12141491Y-13220436D02*
X12131967Y-13201388D01*
X12131967Y-13201388D02*
X12122443Y-13163293D01*
X12122443Y-13163293D02*
X12122443Y-13115674D01*
X12122443Y-13115674D02*
X12131967Y-13077579D01*
X12131967Y-13077579D02*
X12141491Y-13058531D01*
X12141491Y-13058531D02*
X12151015Y-13049008D01*
X12151015Y-13049008D02*
X12170062Y-13039484D01*
X12360539Y-13039484D02*
X12379586Y-13039484D01*
X12379586Y-13039484D02*
X12398634Y-13049008D01*
X12398634Y-13049008D02*
X12408158Y-13058531D01*
X12408158Y-13058531D02*
X12417682Y-13077579D01*
X12417682Y-13077579D02*
X12427205Y-13115674D01*
X12427205Y-13115674D02*
X12427205Y-13163293D01*
X12427205Y-13163293D02*
X12417682Y-13201388D01*
X12417682Y-13201388D02*
X12408158Y-13220436D01*
X12408158Y-13220436D02*
X12398634Y-13229960D01*
X12398634Y-13229960D02*
X12379586Y-13239484D01*
X12379586Y-13239484D02*
X12360539Y-13239484D01*
X12360539Y-13239484D02*
X12341491Y-13229960D01*
X12341491Y-13229960D02*
X12331967Y-13220436D01*
X12331967Y-13220436D02*
X12322443Y-13201388D01*
X12322443Y-13201388D02*
X12312920Y-13163293D01*
X12312920Y-13163293D02*
X12312920Y-13115674D01*
X12312920Y-13115674D02*
X12322443Y-13077579D01*
X12322443Y-13077579D02*
X12331967Y-13058531D01*
X12331967Y-13058531D02*
X12341491Y-13049008D01*
X12341491Y-13049008D02*
X12360539Y-13039484D01*
X12512920Y-13239484D02*
X12512920Y-13106150D01*
X12512920Y-13125198D02*
X12522443Y-13115674D01*
X12522443Y-13115674D02*
X12541491Y-13106150D01*
X12541491Y-13106150D02*
X12570063Y-13106150D01*
X12570063Y-13106150D02*
X12589110Y-13115674D01*
X12589110Y-13115674D02*
X12598634Y-13134722D01*
X12598634Y-13134722D02*
X12598634Y-13239484D01*
X12598634Y-13134722D02*
X12608158Y-13115674D01*
X12608158Y-13115674D02*
X12627205Y-13106150D01*
X12627205Y-13106150D02*
X12655777Y-13106150D01*
X12655777Y-13106150D02*
X12674824Y-13115674D01*
X12674824Y-13115674D02*
X12684348Y-13134722D01*
X12684348Y-13134722D02*
X12684348Y-13239484D01*
X12779586Y-13239484D02*
X12779586Y-13106150D01*
X12779586Y-13125198D02*
X12789110Y-13115674D01*
X12789110Y-13115674D02*
X12808158Y-13106150D01*
X12808158Y-13106150D02*
X12836729Y-13106150D01*
X12836729Y-13106150D02*
X12855777Y-13115674D01*
X12855777Y-13115674D02*
X12865301Y-13134722D01*
X12865301Y-13134722D02*
X12865301Y-13239484D01*
X12865301Y-13134722D02*
X12874824Y-13115674D01*
X12874824Y-13115674D02*
X12893872Y-13106150D01*
X12893872Y-13106150D02*
X12922443Y-13106150D01*
X12922443Y-13106150D02*
X12941491Y-13115674D01*
X12941491Y-13115674D02*
X12951015Y-13134722D01*
X12951015Y-13134722D02*
X12951015Y-13239484D01*
X13341491Y-13029960D02*
X13170063Y-13287103D01*
X13598634Y-13039484D02*
X13617682Y-13039484D01*
X13617682Y-13039484D02*
X13636729Y-13049008D01*
X13636729Y-13049008D02*
X13646253Y-13058531D01*
X13646253Y-13058531D02*
X13655777Y-13077579D01*
X13655777Y-13077579D02*
X13665301Y-13115674D01*
X13665301Y-13115674D02*
X13665301Y-13163293D01*
X13665301Y-13163293D02*
X13655777Y-13201388D01*
X13655777Y-13201388D02*
X13646253Y-13220436D01*
X13646253Y-13220436D02*
X13636729Y-13229960D01*
X13636729Y-13229960D02*
X13617682Y-13239484D01*
X13617682Y-13239484D02*
X13598634Y-13239484D01*
X13598634Y-13239484D02*
X13579586Y-13229960D01*
X13579586Y-13229960D02*
X13570063Y-13220436D01*
X13570063Y-13220436D02*
X13560539Y-13201388D01*
X13560539Y-13201388D02*
X13551015Y-13163293D01*
X13551015Y-13163293D02*
X13551015Y-13115674D01*
X13551015Y-13115674D02*
X13560539Y-13077579D01*
X13560539Y-13077579D02*
X13570063Y-13058531D01*
X13570063Y-13058531D02*
X13579586Y-13049008D01*
X13579586Y-13049008D02*
X13598634Y-13039484D01*
X13751015Y-13220436D02*
X13760539Y-13229960D01*
X13760539Y-13229960D02*
X13751015Y-13239484D01*
X13751015Y-13239484D02*
X13741491Y-13229960D01*
X13741491Y-13229960D02*
X13751015Y-13220436D01*
X13751015Y-13220436D02*
X13751015Y-13239484D01*
X13884348Y-13039484D02*
X13903396Y-13039484D01*
X13903396Y-13039484D02*
X13922444Y-13049008D01*
X13922444Y-13049008D02*
X13931967Y-13058531D01*
X13931967Y-13058531D02*
X13941491Y-13077579D01*
X13941491Y-13077579D02*
X13951015Y-13115674D01*
X13951015Y-13115674D02*
X13951015Y-13163293D01*
X13951015Y-13163293D02*
X13941491Y-13201388D01*
X13941491Y-13201388D02*
X13931967Y-13220436D01*
X13931967Y-13220436D02*
X13922444Y-13229960D01*
X13922444Y-13229960D02*
X13903396Y-13239484D01*
X13903396Y-13239484D02*
X13884348Y-13239484D01*
X13884348Y-13239484D02*
X13865301Y-13229960D01*
X13865301Y-13229960D02*
X13855777Y-13220436D01*
X13855777Y-13220436D02*
X13846253Y-13201388D01*
X13846253Y-13201388D02*
X13836729Y-13163293D01*
X13836729Y-13163293D02*
X13836729Y-13115674D01*
X13836729Y-13115674D02*
X13846253Y-13077579D01*
X13846253Y-13077579D02*
X13855777Y-13058531D01*
X13855777Y-13058531D02*
X13865301Y-13049008D01*
X13865301Y-13049008D02*
X13884348Y-13039484D01*
X14141491Y-13239484D02*
X14027206Y-13239484D01*
X14084348Y-13239484D02*
X14084348Y-13039484D01*
X14084348Y-13039484D02*
X14065301Y-13068055D01*
X14065301Y-13068055D02*
X14046253Y-13087103D01*
X14046253Y-13087103D02*
X14027206Y-13096627D01*
X14322444Y-13039484D02*
X14227206Y-13039484D01*
X14227206Y-13039484D02*
X14217682Y-13134722D01*
X14217682Y-13134722D02*
X14227206Y-13125198D01*
X14227206Y-13125198D02*
X14246253Y-13115674D01*
X14246253Y-13115674D02*
X14293872Y-13115674D01*
X14293872Y-13115674D02*
X14312920Y-13125198D01*
X14312920Y-13125198D02*
X14322444Y-13134722D01*
X14322444Y-13134722D02*
X14331967Y-13153769D01*
X14331967Y-13153769D02*
X14331967Y-13201388D01*
X14331967Y-13201388D02*
X14322444Y-13220436D01*
X14322444Y-13220436D02*
X14312920Y-13229960D01*
X14312920Y-13229960D02*
X14293872Y-13239484D01*
X14293872Y-13239484D02*
X14246253Y-13239484D01*
X14246253Y-13239484D02*
X14227206Y-13229960D01*
X14227206Y-13229960D02*
X14217682Y-13220436D01*
X14398634Y-13039484D02*
X14531967Y-13039484D01*
X14531967Y-13039484D02*
X14446253Y-13239484D01*
X14598634Y-13039484D02*
X14598634Y-13077579D01*
X14674825Y-13039484D02*
X14674825Y-13077579D01*
X14970063Y-13315674D02*
X14960539Y-13306150D01*
X14960539Y-13306150D02*
X14941491Y-13277579D01*
X14941491Y-13277579D02*
X14931968Y-13258531D01*
X14931968Y-13258531D02*
X14922444Y-13229960D01*
X14922444Y-13229960D02*
X14912920Y-13182341D01*
X14912920Y-13182341D02*
X14912920Y-13144246D01*
X14912920Y-13144246D02*
X14922444Y-13096627D01*
X14922444Y-13096627D02*
X14931968Y-13068055D01*
X14931968Y-13068055D02*
X14941491Y-13049008D01*
X14941491Y-13049008D02*
X14960539Y-13020436D01*
X14960539Y-13020436D02*
X14970063Y-13010912D01*
X15055777Y-13239484D02*
X15093872Y-13239484D01*
X15093872Y-13239484D02*
X15112920Y-13229960D01*
X15112920Y-13229960D02*
X15122444Y-13220436D01*
X15122444Y-13220436D02*
X15141491Y-13191865D01*
X15141491Y-13191865D02*
X15151015Y-13153769D01*
X15151015Y-13153769D02*
X15151015Y-13077579D01*
X15151015Y-13077579D02*
X15141491Y-13058531D01*
X15141491Y-13058531D02*
X15131968Y-13049008D01*
X15131968Y-13049008D02*
X15112920Y-13039484D01*
X15112920Y-13039484D02*
X15074825Y-13039484D01*
X15074825Y-13039484D02*
X15055777Y-13049008D01*
X15055777Y-13049008D02*
X15046253Y-13058531D01*
X15046253Y-13058531D02*
X15036729Y-13077579D01*
X15036729Y-13077579D02*
X15036729Y-13125198D01*
X15036729Y-13125198D02*
X15046253Y-13144246D01*
X15046253Y-13144246D02*
X15055777Y-13153769D01*
X15055777Y-13153769D02*
X15074825Y-13163293D01*
X15074825Y-13163293D02*
X15112920Y-13163293D01*
X15112920Y-13163293D02*
X15131968Y-13153769D01*
X15131968Y-13153769D02*
X15141491Y-13144246D01*
X15141491Y-13144246D02*
X15151015Y-13125198D01*
X15274825Y-13039484D02*
X15293872Y-13039484D01*
X15293872Y-13039484D02*
X15312920Y-13049008D01*
X15312920Y-13049008D02*
X15322444Y-13058531D01*
X15322444Y-13058531D02*
X15331968Y-13077579D01*
X15331968Y-13077579D02*
X15341491Y-13115674D01*
X15341491Y-13115674D02*
X15341491Y-13163293D01*
X15341491Y-13163293D02*
X15331968Y-13201388D01*
X15331968Y-13201388D02*
X15322444Y-13220436D01*
X15322444Y-13220436D02*
X15312920Y-13229960D01*
X15312920Y-13229960D02*
X15293872Y-13239484D01*
X15293872Y-13239484D02*
X15274825Y-13239484D01*
X15274825Y-13239484D02*
X15255777Y-13229960D01*
X15255777Y-13229960D02*
X15246253Y-13220436D01*
X15246253Y-13220436D02*
X15236729Y-13201388D01*
X15236729Y-13201388D02*
X15227206Y-13163293D01*
X15227206Y-13163293D02*
X15227206Y-13115674D01*
X15227206Y-13115674D02*
X15236729Y-13077579D01*
X15236729Y-13077579D02*
X15246253Y-13058531D01*
X15246253Y-13058531D02*
X15255777Y-13049008D01*
X15255777Y-13049008D02*
X15274825Y-13039484D01*
X15579587Y-13239484D02*
X15579587Y-13039484D01*
X15665301Y-13239484D02*
X15665301Y-13134722D01*
X15665301Y-13134722D02*
X15655777Y-13115674D01*
X15655777Y-13115674D02*
X15636730Y-13106150D01*
X15636730Y-13106150D02*
X15608158Y-13106150D01*
X15608158Y-13106150D02*
X15589110Y-13115674D01*
X15589110Y-13115674D02*
X15579587Y-13125198D01*
X15789110Y-13239484D02*
X15770063Y-13229960D01*
X15770063Y-13229960D02*
X15760539Y-13220436D01*
X15760539Y-13220436D02*
X15751015Y-13201388D01*
X15751015Y-13201388D02*
X15751015Y-13144246D01*
X15751015Y-13144246D02*
X15760539Y-13125198D01*
X15760539Y-13125198D02*
X15770063Y-13115674D01*
X15770063Y-13115674D02*
X15789110Y-13106150D01*
X15789110Y-13106150D02*
X15817682Y-13106150D01*
X15817682Y-13106150D02*
X15836730Y-13115674D01*
X15836730Y-13115674D02*
X15846253Y-13125198D01*
X15846253Y-13125198D02*
X15855777Y-13144246D01*
X15855777Y-13144246D02*
X15855777Y-13201388D01*
X15855777Y-13201388D02*
X15846253Y-13220436D01*
X15846253Y-13220436D02*
X15836730Y-13229960D01*
X15836730Y-13229960D02*
X15817682Y-13239484D01*
X15817682Y-13239484D02*
X15789110Y-13239484D01*
X15970063Y-13239484D02*
X15951015Y-13229960D01*
X15951015Y-13229960D02*
X15941491Y-13210912D01*
X15941491Y-13210912D02*
X15941491Y-13039484D01*
X16122444Y-13229960D02*
X16103396Y-13239484D01*
X16103396Y-13239484D02*
X16065301Y-13239484D01*
X16065301Y-13239484D02*
X16046253Y-13229960D01*
X16046253Y-13229960D02*
X16036730Y-13210912D01*
X16036730Y-13210912D02*
X16036730Y-13134722D01*
X16036730Y-13134722D02*
X16046253Y-13115674D01*
X16046253Y-13115674D02*
X16065301Y-13106150D01*
X16065301Y-13106150D02*
X16103396Y-13106150D01*
X16103396Y-13106150D02*
X16122444Y-13115674D01*
X16122444Y-13115674D02*
X16131968Y-13134722D01*
X16131968Y-13134722D02*
X16131968Y-13153769D01*
X16131968Y-13153769D02*
X16036730Y-13172817D01*
X16208158Y-13229960D02*
X16227206Y-13239484D01*
X16227206Y-13239484D02*
X16265301Y-13239484D01*
X16265301Y-13239484D02*
X16284349Y-13229960D01*
X16284349Y-13229960D02*
X16293872Y-13210912D01*
X16293872Y-13210912D02*
X16293872Y-13201388D01*
X16293872Y-13201388D02*
X16284349Y-13182341D01*
X16284349Y-13182341D02*
X16265301Y-13172817D01*
X16265301Y-13172817D02*
X16236730Y-13172817D01*
X16236730Y-13172817D02*
X16217682Y-13163293D01*
X16217682Y-13163293D02*
X16208158Y-13144246D01*
X16208158Y-13144246D02*
X16208158Y-13134722D01*
X16208158Y-13134722D02*
X16217682Y-13115674D01*
X16217682Y-13115674D02*
X16236730Y-13106150D01*
X16236730Y-13106150D02*
X16265301Y-13106150D01*
X16265301Y-13106150D02*
X16284349Y-13115674D01*
X16360539Y-13315674D02*
X16370063Y-13306150D01*
X16370063Y-13306150D02*
X16389111Y-13277579D01*
X16389111Y-13277579D02*
X16398634Y-13258531D01*
X16398634Y-13258531D02*
X16408158Y-13229960D01*
X16408158Y-13229960D02*
X16417682Y-13182341D01*
X16417682Y-13182341D02*
X16417682Y-13144246D01*
X16417682Y-13144246D02*
X16408158Y-13096627D01*
X16408158Y-13096627D02*
X16398634Y-13068055D01*
X16398634Y-13068055D02*
X16389111Y-13049008D01*
X16389111Y-13049008D02*
X16370063Y-13020436D01*
X16370063Y-13020436D02*
X16360539Y-13010912D01*
D10*
X11355000Y-13372000D02*
X11355000Y-13452000D01*
X11315000Y-13412000D02*
X11395000Y-13412000D01*
D11*
X11693872Y-13303484D02*
X11712920Y-13303484D01*
X11712920Y-13303484D02*
X11731967Y-13313008D01*
X11731967Y-13313008D02*
X11741491Y-13322531D01*
X11741491Y-13322531D02*
X11751015Y-13341579D01*
X11751015Y-13341579D02*
X11760539Y-13379674D01*
X11760539Y-13379674D02*
X11760539Y-13427293D01*
X11760539Y-13427293D02*
X11751015Y-13465388D01*
X11751015Y-13465388D02*
X11741491Y-13484436D01*
X11741491Y-13484436D02*
X11731967Y-13493960D01*
X11731967Y-13493960D02*
X11712920Y-13503484D01*
X11712920Y-13503484D02*
X11693872Y-13503484D01*
X11693872Y-13503484D02*
X11674824Y-13493960D01*
X11674824Y-13493960D02*
X11665301Y-13484436D01*
X11665301Y-13484436D02*
X11655777Y-13465388D01*
X11655777Y-13465388D02*
X11646253Y-13427293D01*
X11646253Y-13427293D02*
X11646253Y-13379674D01*
X11646253Y-13379674D02*
X11655777Y-13341579D01*
X11655777Y-13341579D02*
X11665301Y-13322531D01*
X11665301Y-13322531D02*
X11674824Y-13313008D01*
X11674824Y-13313008D02*
X11693872Y-13303484D01*
X11846253Y-13484436D02*
X11855777Y-13493960D01*
X11855777Y-13493960D02*
X11846253Y-13503484D01*
X11846253Y-13503484D02*
X11836729Y-13493960D01*
X11836729Y-13493960D02*
X11846253Y-13484436D01*
X11846253Y-13484436D02*
X11846253Y-13503484D01*
X11970062Y-13389198D02*
X11951015Y-13379674D01*
X11951015Y-13379674D02*
X11941491Y-13370150D01*
X11941491Y-13370150D02*
X11931967Y-13351103D01*
X11931967Y-13351103D02*
X11931967Y-13341579D01*
X11931967Y-13341579D02*
X11941491Y-13322531D01*
X11941491Y-13322531D02*
X11951015Y-13313008D01*
X11951015Y-13313008D02*
X11970062Y-13303484D01*
X11970062Y-13303484D02*
X12008158Y-13303484D01*
X12008158Y-13303484D02*
X12027205Y-13313008D01*
X12027205Y-13313008D02*
X12036729Y-13322531D01*
X12036729Y-13322531D02*
X12046253Y-13341579D01*
X12046253Y-13341579D02*
X12046253Y-13351103D01*
X12046253Y-13351103D02*
X12036729Y-13370150D01*
X12036729Y-13370150D02*
X12027205Y-13379674D01*
X12027205Y-13379674D02*
X12008158Y-13389198D01*
X12008158Y-13389198D02*
X11970062Y-13389198D01*
X11970062Y-13389198D02*
X11951015Y-13398722D01*
X11951015Y-13398722D02*
X11941491Y-13408246D01*
X11941491Y-13408246D02*
X11931967Y-13427293D01*
X11931967Y-13427293D02*
X11931967Y-13465388D01*
X11931967Y-13465388D02*
X11941491Y-13484436D01*
X11941491Y-13484436D02*
X11951015Y-13493960D01*
X11951015Y-13493960D02*
X11970062Y-13503484D01*
X11970062Y-13503484D02*
X12008158Y-13503484D01*
X12008158Y-13503484D02*
X12027205Y-13493960D01*
X12027205Y-13493960D02*
X12036729Y-13484436D01*
X12036729Y-13484436D02*
X12046253Y-13465388D01*
X12046253Y-13465388D02*
X12046253Y-13427293D01*
X12046253Y-13427293D02*
X12036729Y-13408246D01*
X12036729Y-13408246D02*
X12027205Y-13398722D01*
X12027205Y-13398722D02*
X12008158Y-13389198D01*
X12170062Y-13303484D02*
X12189110Y-13303484D01*
X12189110Y-13303484D02*
X12208158Y-13313008D01*
X12208158Y-13313008D02*
X12217682Y-13322531D01*
X12217682Y-13322531D02*
X12227205Y-13341579D01*
X12227205Y-13341579D02*
X12236729Y-13379674D01*
X12236729Y-13379674D02*
X12236729Y-13427293D01*
X12236729Y-13427293D02*
X12227205Y-13465388D01*
X12227205Y-13465388D02*
X12217682Y-13484436D01*
X12217682Y-13484436D02*
X12208158Y-13493960D01*
X12208158Y-13493960D02*
X12189110Y-13503484D01*
X12189110Y-13503484D02*
X12170062Y-13503484D01*
X12170062Y-13503484D02*
X12151015Y-13493960D01*
X12151015Y-13493960D02*
X12141491Y-13484436D01*
X12141491Y-13484436D02*
X12131967Y-13465388D01*
X12131967Y-13465388D02*
X12122443Y-13427293D01*
X12122443Y-13427293D02*
X12122443Y-13379674D01*
X12122443Y-13379674D02*
X12131967Y-13341579D01*
X12131967Y-13341579D02*
X12141491Y-13322531D01*
X12141491Y-13322531D02*
X12151015Y-13313008D01*
X12151015Y-13313008D02*
X12170062Y-13303484D01*
X12360539Y-13303484D02*
X12379586Y-13303484D01*
X12379586Y-13303484D02*
X12398634Y-13313008D01*
X12398634Y-13313008D02*
X12408158Y-13322531D01*
X12408158Y-13322531D02*
X12417682Y-13341579D01*
X12417682Y-13341579D02*
X12427205Y-13379674D01*
X12427205Y-13379674D02*
X12427205Y-13427293D01*
X12427205Y-13427293D02*
X12417682Y-13465388D01*
X12417682Y-13465388D02*
X12408158Y-13484436D01*
X12408158Y-13484436D02*
X12398634Y-13493960D01*
X12398634Y-13493960D02*
X12379586Y-13503484D01*
X12379586Y-13503484D02*
X12360539Y-13503484D01*
X12360539Y-13503484D02*
X12341491Y-13493960D01*
X12341491Y-13493960D02*
X12331967Y-13484436D01*
X12331967Y-13484436D02*
X12322443Y-13465388D01*
X12322443Y-13465388D02*
X12312920Y-13427293D01*
X12312920Y-13427293D02*
X12312920Y-13379674D01*
X12312920Y-13379674D02*
X12322443Y-13341579D01*
X12322443Y-13341579D02*
X12331967Y-13322531D01*
X12331967Y-13322531D02*
X12341491Y-13313008D01*
X12341491Y-13313008D02*
X12360539Y-13303484D01*
X12512920Y-13503484D02*
X12512920Y-13370150D01*
X12512920Y-13389198D02*
X12522443Y-13379674D01*
X12522443Y-13379674D02*
X12541491Y-13370150D01*
X12541491Y-13370150D02*
X12570063Y-13370150D01*
X12570063Y-13370150D02*
X12589110Y-13379674D01*
X12589110Y-13379674D02*
X12598634Y-13398722D01*
X12598634Y-13398722D02*
X12598634Y-13503484D01*
X12598634Y-13398722D02*
X12608158Y-13379674D01*
X12608158Y-13379674D02*
X12627205Y-13370150D01*
X12627205Y-13370150D02*
X12655777Y-13370150D01*
X12655777Y-13370150D02*
X12674824Y-13379674D01*
X12674824Y-13379674D02*
X12684348Y-13398722D01*
X12684348Y-13398722D02*
X12684348Y-13503484D01*
X12779586Y-13503484D02*
X12779586Y-13370150D01*
X12779586Y-13389198D02*
X12789110Y-13379674D01*
X12789110Y-13379674D02*
X12808158Y-13370150D01*
X12808158Y-13370150D02*
X12836729Y-13370150D01*
X12836729Y-13370150D02*
X12855777Y-13379674D01*
X12855777Y-13379674D02*
X12865301Y-13398722D01*
X12865301Y-13398722D02*
X12865301Y-13503484D01*
X12865301Y-13398722D02*
X12874824Y-13379674D01*
X12874824Y-13379674D02*
X12893872Y-13370150D01*
X12893872Y-13370150D02*
X12922443Y-13370150D01*
X12922443Y-13370150D02*
X12941491Y-13379674D01*
X12941491Y-13379674D02*
X12951015Y-13398722D01*
X12951015Y-13398722D02*
X12951015Y-13503484D01*
X13341491Y-13293960D02*
X13170063Y-13551103D01*
X13598634Y-13303484D02*
X13617682Y-13303484D01*
X13617682Y-13303484D02*
X13636729Y-13313008D01*
X13636729Y-13313008D02*
X13646253Y-13322531D01*
X13646253Y-13322531D02*
X13655777Y-13341579D01*
X13655777Y-13341579D02*
X13665301Y-13379674D01*
X13665301Y-13379674D02*
X13665301Y-13427293D01*
X13665301Y-13427293D02*
X13655777Y-13465388D01*
X13655777Y-13465388D02*
X13646253Y-13484436D01*
X13646253Y-13484436D02*
X13636729Y-13493960D01*
X13636729Y-13493960D02*
X13617682Y-13503484D01*
X13617682Y-13503484D02*
X13598634Y-13503484D01*
X13598634Y-13503484D02*
X13579586Y-13493960D01*
X13579586Y-13493960D02*
X13570063Y-13484436D01*
X13570063Y-13484436D02*
X13560539Y-13465388D01*
X13560539Y-13465388D02*
X13551015Y-13427293D01*
X13551015Y-13427293D02*
X13551015Y-13379674D01*
X13551015Y-13379674D02*
X13560539Y-13341579D01*
X13560539Y-13341579D02*
X13570063Y-13322531D01*
X13570063Y-13322531D02*
X13579586Y-13313008D01*
X13579586Y-13313008D02*
X13598634Y-13303484D01*
X13751015Y-13484436D02*
X13760539Y-13493960D01*
X13760539Y-13493960D02*
X13751015Y-13503484D01*
X13751015Y-13503484D02*
X13741491Y-13493960D01*
X13741491Y-13493960D02*
X13751015Y-13484436D01*
X13751015Y-13484436D02*
X13751015Y-13503484D01*
X13884348Y-13303484D02*
X13903396Y-13303484D01*
X13903396Y-13303484D02*
X13922444Y-13313008D01*
X13922444Y-13313008D02*
X13931967Y-13322531D01*
X13931967Y-13322531D02*
X13941491Y-13341579D01*
X13941491Y-13341579D02*
X13951015Y-13379674D01*
X13951015Y-13379674D02*
X13951015Y-13427293D01*
X13951015Y-13427293D02*
X13941491Y-13465388D01*
X13941491Y-13465388D02*
X13931967Y-13484436D01*
X13931967Y-13484436D02*
X13922444Y-13493960D01*
X13922444Y-13493960D02*
X13903396Y-13503484D01*
X13903396Y-13503484D02*
X13884348Y-13503484D01*
X13884348Y-13503484D02*
X13865301Y-13493960D01*
X13865301Y-13493960D02*
X13855777Y-13484436D01*
X13855777Y-13484436D02*
X13846253Y-13465388D01*
X13846253Y-13465388D02*
X13836729Y-13427293D01*
X13836729Y-13427293D02*
X13836729Y-13379674D01*
X13836729Y-13379674D02*
X13846253Y-13341579D01*
X13846253Y-13341579D02*
X13855777Y-13322531D01*
X13855777Y-13322531D02*
X13865301Y-13313008D01*
X13865301Y-13313008D02*
X13884348Y-13303484D01*
X14017682Y-13303484D02*
X14141491Y-13303484D01*
X14141491Y-13303484D02*
X14074825Y-13379674D01*
X14074825Y-13379674D02*
X14103396Y-13379674D01*
X14103396Y-13379674D02*
X14122444Y-13389198D01*
X14122444Y-13389198D02*
X14131967Y-13398722D01*
X14131967Y-13398722D02*
X14141491Y-13417769D01*
X14141491Y-13417769D02*
X14141491Y-13465388D01*
X14141491Y-13465388D02*
X14131967Y-13484436D01*
X14131967Y-13484436D02*
X14122444Y-13493960D01*
X14122444Y-13493960D02*
X14103396Y-13503484D01*
X14103396Y-13503484D02*
X14046253Y-13503484D01*
X14046253Y-13503484D02*
X14027206Y-13493960D01*
X14027206Y-13493960D02*
X14017682Y-13484436D01*
X14331967Y-13503484D02*
X14217682Y-13503484D01*
X14274825Y-13503484D02*
X14274825Y-13303484D01*
X14274825Y-13303484D02*
X14255777Y-13332055D01*
X14255777Y-13332055D02*
X14236729Y-13351103D01*
X14236729Y-13351103D02*
X14217682Y-13360627D01*
X14512920Y-13303484D02*
X14417682Y-13303484D01*
X14417682Y-13303484D02*
X14408158Y-13398722D01*
X14408158Y-13398722D02*
X14417682Y-13389198D01*
X14417682Y-13389198D02*
X14436729Y-13379674D01*
X14436729Y-13379674D02*
X14484348Y-13379674D01*
X14484348Y-13379674D02*
X14503396Y-13389198D01*
X14503396Y-13389198D02*
X14512920Y-13398722D01*
X14512920Y-13398722D02*
X14522444Y-13417769D01*
X14522444Y-13417769D02*
X14522444Y-13465388D01*
X14522444Y-13465388D02*
X14512920Y-13484436D01*
X14512920Y-13484436D02*
X14503396Y-13493960D01*
X14503396Y-13493960D02*
X14484348Y-13503484D01*
X14484348Y-13503484D02*
X14436729Y-13503484D01*
X14436729Y-13503484D02*
X14417682Y-13493960D01*
X14417682Y-13493960D02*
X14408158Y-13484436D01*
X14598634Y-13303484D02*
X14598634Y-13341579D01*
X14674825Y-13303484D02*
X14674825Y-13341579D01*
X14970063Y-13579674D02*
X14960539Y-13570150D01*
X14960539Y-13570150D02*
X14941491Y-13541579D01*
X14941491Y-13541579D02*
X14931968Y-13522531D01*
X14931968Y-13522531D02*
X14922444Y-13493960D01*
X14922444Y-13493960D02*
X14912920Y-13446341D01*
X14912920Y-13446341D02*
X14912920Y-13408246D01*
X14912920Y-13408246D02*
X14922444Y-13360627D01*
X14922444Y-13360627D02*
X14931968Y-13332055D01*
X14931968Y-13332055D02*
X14941491Y-13313008D01*
X14941491Y-13313008D02*
X14960539Y-13284436D01*
X14960539Y-13284436D02*
X14970063Y-13274912D01*
X15131968Y-13370150D02*
X15131968Y-13503484D01*
X15084348Y-13293960D02*
X15036729Y-13436817D01*
X15036729Y-13436817D02*
X15160539Y-13436817D01*
X15389110Y-13503484D02*
X15389110Y-13303484D01*
X15474825Y-13503484D02*
X15474825Y-13398722D01*
X15474825Y-13398722D02*
X15465301Y-13379674D01*
X15465301Y-13379674D02*
X15446253Y-13370150D01*
X15446253Y-13370150D02*
X15417682Y-13370150D01*
X15417682Y-13370150D02*
X15398634Y-13379674D01*
X15398634Y-13379674D02*
X15389110Y-13389198D01*
X15598634Y-13503484D02*
X15579587Y-13493960D01*
X15579587Y-13493960D02*
X15570063Y-13484436D01*
X15570063Y-13484436D02*
X15560539Y-13465388D01*
X15560539Y-13465388D02*
X15560539Y-13408246D01*
X15560539Y-13408246D02*
X15570063Y-13389198D01*
X15570063Y-13389198D02*
X15579587Y-13379674D01*
X15579587Y-13379674D02*
X15598634Y-13370150D01*
X15598634Y-13370150D02*
X15627206Y-13370150D01*
X15627206Y-13370150D02*
X15646253Y-13379674D01*
X15646253Y-13379674D02*
X15655777Y-13389198D01*
X15655777Y-13389198D02*
X15665301Y-13408246D01*
X15665301Y-13408246D02*
X15665301Y-13465388D01*
X15665301Y-13465388D02*
X15655777Y-13484436D01*
X15655777Y-13484436D02*
X15646253Y-13493960D01*
X15646253Y-13493960D02*
X15627206Y-13503484D01*
X15627206Y-13503484D02*
X15598634Y-13503484D01*
X15779587Y-13503484D02*
X15760539Y-13493960D01*
X15760539Y-13493960D02*
X15751015Y-13474912D01*
X15751015Y-13474912D02*
X15751015Y-13303484D01*
X15931968Y-13493960D02*
X15912920Y-13503484D01*
X15912920Y-13503484D02*
X15874825Y-13503484D01*
X15874825Y-13503484D02*
X15855777Y-13493960D01*
X15855777Y-13493960D02*
X15846253Y-13474912D01*
X15846253Y-13474912D02*
X15846253Y-13398722D01*
X15846253Y-13398722D02*
X15855777Y-13379674D01*
X15855777Y-13379674D02*
X15874825Y-13370150D01*
X15874825Y-13370150D02*
X15912920Y-13370150D01*
X15912920Y-13370150D02*
X15931968Y-13379674D01*
X15931968Y-13379674D02*
X15941491Y-13398722D01*
X15941491Y-13398722D02*
X15941491Y-13417769D01*
X15941491Y-13417769D02*
X15846253Y-13436817D01*
X16017682Y-13493960D02*
X16036730Y-13503484D01*
X16036730Y-13503484D02*
X16074825Y-13503484D01*
X16074825Y-13503484D02*
X16093872Y-13493960D01*
X16093872Y-13493960D02*
X16103396Y-13474912D01*
X16103396Y-13474912D02*
X16103396Y-13465388D01*
X16103396Y-13465388D02*
X16093872Y-13446341D01*
X16093872Y-13446341D02*
X16074825Y-13436817D01*
X16074825Y-13436817D02*
X16046253Y-13436817D01*
X16046253Y-13436817D02*
X16027206Y-13427293D01*
X16027206Y-13427293D02*
X16017682Y-13408246D01*
X16017682Y-13408246D02*
X16017682Y-13398722D01*
X16017682Y-13398722D02*
X16027206Y-13379674D01*
X16027206Y-13379674D02*
X16046253Y-13370150D01*
X16046253Y-13370150D02*
X16074825Y-13370150D01*
X16074825Y-13370150D02*
X16093872Y-13379674D01*
X16170063Y-13579674D02*
X16179587Y-13570150D01*
X16179587Y-13570150D02*
X16198634Y-13541579D01*
X16198634Y-13541579D02*
X16208158Y-13522531D01*
X16208158Y-13522531D02*
X16217682Y-13493960D01*
X16217682Y-13493960D02*
X16227206Y-13446341D01*
X16227206Y-13446341D02*
X16227206Y-13408246D01*
X16227206Y-13408246D02*
X16217682Y-13360627D01*
X16217682Y-13360627D02*
X16208158Y-13332055D01*
X16208158Y-13332055D02*
X16198634Y-13313008D01*
X16198634Y-13313008D02*
X16179587Y-13284436D01*
X16179587Y-13284436D02*
X16170063Y-13274912D01*
D10*
X11380356Y-13711356D02*
X11380356Y-13640644D01*
X11309644Y-13640644D01*
X11309644Y-13711356D01*
X11380356Y-13711356D01*
D11*
X11760539Y-13767484D02*
X11646253Y-13767484D01*
X11703396Y-13767484D02*
X11703396Y-13567484D01*
X11703396Y-13567484D02*
X11684348Y-13596055D01*
X11684348Y-13596055D02*
X11665301Y-13615103D01*
X11665301Y-13615103D02*
X11646253Y-13624627D01*
X11846253Y-13748436D02*
X11855777Y-13757960D01*
X11855777Y-13757960D02*
X11846253Y-13767484D01*
X11846253Y-13767484D02*
X11836729Y-13757960D01*
X11836729Y-13757960D02*
X11846253Y-13748436D01*
X11846253Y-13748436D02*
X11846253Y-13767484D01*
X11979586Y-13567484D02*
X11998634Y-13567484D01*
X11998634Y-13567484D02*
X12017682Y-13577008D01*
X12017682Y-13577008D02*
X12027205Y-13586531D01*
X12027205Y-13586531D02*
X12036729Y-13605579D01*
X12036729Y-13605579D02*
X12046253Y-13643674D01*
X12046253Y-13643674D02*
X12046253Y-13691293D01*
X12046253Y-13691293D02*
X12036729Y-13729388D01*
X12036729Y-13729388D02*
X12027205Y-13748436D01*
X12027205Y-13748436D02*
X12017682Y-13757960D01*
X12017682Y-13757960D02*
X11998634Y-13767484D01*
X11998634Y-13767484D02*
X11979586Y-13767484D01*
X11979586Y-13767484D02*
X11960539Y-13757960D01*
X11960539Y-13757960D02*
X11951015Y-13748436D01*
X11951015Y-13748436D02*
X11941491Y-13729388D01*
X11941491Y-13729388D02*
X11931967Y-13691293D01*
X11931967Y-13691293D02*
X11931967Y-13643674D01*
X11931967Y-13643674D02*
X11941491Y-13605579D01*
X11941491Y-13605579D02*
X11951015Y-13586531D01*
X11951015Y-13586531D02*
X11960539Y-13577008D01*
X11960539Y-13577008D02*
X11979586Y-13567484D01*
X12170062Y-13567484D02*
X12189110Y-13567484D01*
X12189110Y-13567484D02*
X12208158Y-13577008D01*
X12208158Y-13577008D02*
X12217682Y-13586531D01*
X12217682Y-13586531D02*
X12227205Y-13605579D01*
X12227205Y-13605579D02*
X12236729Y-13643674D01*
X12236729Y-13643674D02*
X12236729Y-13691293D01*
X12236729Y-13691293D02*
X12227205Y-13729388D01*
X12227205Y-13729388D02*
X12217682Y-13748436D01*
X12217682Y-13748436D02*
X12208158Y-13757960D01*
X12208158Y-13757960D02*
X12189110Y-13767484D01*
X12189110Y-13767484D02*
X12170062Y-13767484D01*
X12170062Y-13767484D02*
X12151015Y-13757960D01*
X12151015Y-13757960D02*
X12141491Y-13748436D01*
X12141491Y-13748436D02*
X12131967Y-13729388D01*
X12131967Y-13729388D02*
X12122443Y-13691293D01*
X12122443Y-13691293D02*
X12122443Y-13643674D01*
X12122443Y-13643674D02*
X12131967Y-13605579D01*
X12131967Y-13605579D02*
X12141491Y-13586531D01*
X12141491Y-13586531D02*
X12151015Y-13577008D01*
X12151015Y-13577008D02*
X12170062Y-13567484D01*
X12360539Y-13567484D02*
X12379586Y-13567484D01*
X12379586Y-13567484D02*
X12398634Y-13577008D01*
X12398634Y-13577008D02*
X12408158Y-13586531D01*
X12408158Y-13586531D02*
X12417682Y-13605579D01*
X12417682Y-13605579D02*
X12427205Y-13643674D01*
X12427205Y-13643674D02*
X12427205Y-13691293D01*
X12427205Y-13691293D02*
X12417682Y-13729388D01*
X12417682Y-13729388D02*
X12408158Y-13748436D01*
X12408158Y-13748436D02*
X12398634Y-13757960D01*
X12398634Y-13757960D02*
X12379586Y-13767484D01*
X12379586Y-13767484D02*
X12360539Y-13767484D01*
X12360539Y-13767484D02*
X12341491Y-13757960D01*
X12341491Y-13757960D02*
X12331967Y-13748436D01*
X12331967Y-13748436D02*
X12322443Y-13729388D01*
X12322443Y-13729388D02*
X12312920Y-13691293D01*
X12312920Y-13691293D02*
X12312920Y-13643674D01*
X12312920Y-13643674D02*
X12322443Y-13605579D01*
X12322443Y-13605579D02*
X12331967Y-13586531D01*
X12331967Y-13586531D02*
X12341491Y-13577008D01*
X12341491Y-13577008D02*
X12360539Y-13567484D01*
X12512920Y-13767484D02*
X12512920Y-13634150D01*
X12512920Y-13653198D02*
X12522443Y-13643674D01*
X12522443Y-13643674D02*
X12541491Y-13634150D01*
X12541491Y-13634150D02*
X12570063Y-13634150D01*
X12570063Y-13634150D02*
X12589110Y-13643674D01*
X12589110Y-13643674D02*
X12598634Y-13662722D01*
X12598634Y-13662722D02*
X12598634Y-13767484D01*
X12598634Y-13662722D02*
X12608158Y-13643674D01*
X12608158Y-13643674D02*
X12627205Y-13634150D01*
X12627205Y-13634150D02*
X12655777Y-13634150D01*
X12655777Y-13634150D02*
X12674824Y-13643674D01*
X12674824Y-13643674D02*
X12684348Y-13662722D01*
X12684348Y-13662722D02*
X12684348Y-13767484D01*
X12779586Y-13767484D02*
X12779586Y-13634150D01*
X12779586Y-13653198D02*
X12789110Y-13643674D01*
X12789110Y-13643674D02*
X12808158Y-13634150D01*
X12808158Y-13634150D02*
X12836729Y-13634150D01*
X12836729Y-13634150D02*
X12855777Y-13643674D01*
X12855777Y-13643674D02*
X12865301Y-13662722D01*
X12865301Y-13662722D02*
X12865301Y-13767484D01*
X12865301Y-13662722D02*
X12874824Y-13643674D01*
X12874824Y-13643674D02*
X12893872Y-13634150D01*
X12893872Y-13634150D02*
X12922443Y-13634150D01*
X12922443Y-13634150D02*
X12941491Y-13643674D01*
X12941491Y-13643674D02*
X12951015Y-13662722D01*
X12951015Y-13662722D02*
X12951015Y-13767484D01*
X13341491Y-13557960D02*
X13170063Y-13815103D01*
X13598634Y-13567484D02*
X13617682Y-13567484D01*
X13617682Y-13567484D02*
X13636729Y-13577008D01*
X13636729Y-13577008D02*
X13646253Y-13586531D01*
X13646253Y-13586531D02*
X13655777Y-13605579D01*
X13655777Y-13605579D02*
X13665301Y-13643674D01*
X13665301Y-13643674D02*
X13665301Y-13691293D01*
X13665301Y-13691293D02*
X13655777Y-13729388D01*
X13655777Y-13729388D02*
X13646253Y-13748436D01*
X13646253Y-13748436D02*
X13636729Y-13757960D01*
X13636729Y-13757960D02*
X13617682Y-13767484D01*
X13617682Y-13767484D02*
X13598634Y-13767484D01*
X13598634Y-13767484D02*
X13579586Y-13757960D01*
X13579586Y-13757960D02*
X13570063Y-13748436D01*
X13570063Y-13748436D02*
X13560539Y-13729388D01*
X13560539Y-13729388D02*
X13551015Y-13691293D01*
X13551015Y-13691293D02*
X13551015Y-13643674D01*
X13551015Y-13643674D02*
X13560539Y-13605579D01*
X13560539Y-13605579D02*
X13570063Y-13586531D01*
X13570063Y-13586531D02*
X13579586Y-13577008D01*
X13579586Y-13577008D02*
X13598634Y-13567484D01*
X13751015Y-13748436D02*
X13760539Y-13757960D01*
X13760539Y-13757960D02*
X13751015Y-13767484D01*
X13751015Y-13767484D02*
X13741491Y-13757960D01*
X13741491Y-13757960D02*
X13751015Y-13748436D01*
X13751015Y-13748436D02*
X13751015Y-13767484D01*
X13884348Y-13567484D02*
X13903396Y-13567484D01*
X13903396Y-13567484D02*
X13922444Y-13577008D01*
X13922444Y-13577008D02*
X13931967Y-13586531D01*
X13931967Y-13586531D02*
X13941491Y-13605579D01*
X13941491Y-13605579D02*
X13951015Y-13643674D01*
X13951015Y-13643674D02*
X13951015Y-13691293D01*
X13951015Y-13691293D02*
X13941491Y-13729388D01*
X13941491Y-13729388D02*
X13931967Y-13748436D01*
X13931967Y-13748436D02*
X13922444Y-13757960D01*
X13922444Y-13757960D02*
X13903396Y-13767484D01*
X13903396Y-13767484D02*
X13884348Y-13767484D01*
X13884348Y-13767484D02*
X13865301Y-13757960D01*
X13865301Y-13757960D02*
X13855777Y-13748436D01*
X13855777Y-13748436D02*
X13846253Y-13729388D01*
X13846253Y-13729388D02*
X13836729Y-13691293D01*
X13836729Y-13691293D02*
X13836729Y-13643674D01*
X13836729Y-13643674D02*
X13846253Y-13605579D01*
X13846253Y-13605579D02*
X13855777Y-13586531D01*
X13855777Y-13586531D02*
X13865301Y-13577008D01*
X13865301Y-13577008D02*
X13884348Y-13567484D01*
X14017682Y-13567484D02*
X14141491Y-13567484D01*
X14141491Y-13567484D02*
X14074825Y-13643674D01*
X14074825Y-13643674D02*
X14103396Y-13643674D01*
X14103396Y-13643674D02*
X14122444Y-13653198D01*
X14122444Y-13653198D02*
X14131967Y-13662722D01*
X14131967Y-13662722D02*
X14141491Y-13681769D01*
X14141491Y-13681769D02*
X14141491Y-13729388D01*
X14141491Y-13729388D02*
X14131967Y-13748436D01*
X14131967Y-13748436D02*
X14122444Y-13757960D01*
X14122444Y-13757960D02*
X14103396Y-13767484D01*
X14103396Y-13767484D02*
X14046253Y-13767484D01*
X14046253Y-13767484D02*
X14027206Y-13757960D01*
X14027206Y-13757960D02*
X14017682Y-13748436D01*
X14236729Y-13767484D02*
X14274825Y-13767484D01*
X14274825Y-13767484D02*
X14293872Y-13757960D01*
X14293872Y-13757960D02*
X14303396Y-13748436D01*
X14303396Y-13748436D02*
X14322444Y-13719865D01*
X14322444Y-13719865D02*
X14331967Y-13681769D01*
X14331967Y-13681769D02*
X14331967Y-13605579D01*
X14331967Y-13605579D02*
X14322444Y-13586531D01*
X14322444Y-13586531D02*
X14312920Y-13577008D01*
X14312920Y-13577008D02*
X14293872Y-13567484D01*
X14293872Y-13567484D02*
X14255777Y-13567484D01*
X14255777Y-13567484D02*
X14236729Y-13577008D01*
X14236729Y-13577008D02*
X14227206Y-13586531D01*
X14227206Y-13586531D02*
X14217682Y-13605579D01*
X14217682Y-13605579D02*
X14217682Y-13653198D01*
X14217682Y-13653198D02*
X14227206Y-13672246D01*
X14227206Y-13672246D02*
X14236729Y-13681769D01*
X14236729Y-13681769D02*
X14255777Y-13691293D01*
X14255777Y-13691293D02*
X14293872Y-13691293D01*
X14293872Y-13691293D02*
X14312920Y-13681769D01*
X14312920Y-13681769D02*
X14322444Y-13672246D01*
X14322444Y-13672246D02*
X14331967Y-13653198D01*
X14503396Y-13634150D02*
X14503396Y-13767484D01*
X14455777Y-13557960D02*
X14408158Y-13700817D01*
X14408158Y-13700817D02*
X14531967Y-13700817D01*
X14598634Y-13567484D02*
X14598634Y-13605579D01*
X14674825Y-13567484D02*
X14674825Y-13605579D01*
X14970063Y-13843674D02*
X14960539Y-13834150D01*
X14960539Y-13834150D02*
X14941491Y-13805579D01*
X14941491Y-13805579D02*
X14931968Y-13786531D01*
X14931968Y-13786531D02*
X14922444Y-13757960D01*
X14922444Y-13757960D02*
X14912920Y-13710341D01*
X14912920Y-13710341D02*
X14912920Y-13672246D01*
X14912920Y-13672246D02*
X14922444Y-13624627D01*
X14922444Y-13624627D02*
X14931968Y-13596055D01*
X14931968Y-13596055D02*
X14941491Y-13577008D01*
X14941491Y-13577008D02*
X14960539Y-13548436D01*
X14960539Y-13548436D02*
X14970063Y-13538912D01*
X15141491Y-13567484D02*
X15046253Y-13567484D01*
X15046253Y-13567484D02*
X15036729Y-13662722D01*
X15036729Y-13662722D02*
X15046253Y-13653198D01*
X15046253Y-13653198D02*
X15065301Y-13643674D01*
X15065301Y-13643674D02*
X15112920Y-13643674D01*
X15112920Y-13643674D02*
X15131968Y-13653198D01*
X15131968Y-13653198D02*
X15141491Y-13662722D01*
X15141491Y-13662722D02*
X15151015Y-13681769D01*
X15151015Y-13681769D02*
X15151015Y-13729388D01*
X15151015Y-13729388D02*
X15141491Y-13748436D01*
X15141491Y-13748436D02*
X15131968Y-13757960D01*
X15131968Y-13757960D02*
X15112920Y-13767484D01*
X15112920Y-13767484D02*
X15065301Y-13767484D01*
X15065301Y-13767484D02*
X15046253Y-13757960D01*
X15046253Y-13757960D02*
X15036729Y-13748436D01*
X15322444Y-13634150D02*
X15322444Y-13767484D01*
X15274825Y-13557960D02*
X15227206Y-13700817D01*
X15227206Y-13700817D02*
X15351015Y-13700817D01*
X15579587Y-13767484D02*
X15579587Y-13567484D01*
X15665301Y-13767484D02*
X15665301Y-13662722D01*
X15665301Y-13662722D02*
X15655777Y-13643674D01*
X15655777Y-13643674D02*
X15636730Y-13634150D01*
X15636730Y-13634150D02*
X15608158Y-13634150D01*
X15608158Y-13634150D02*
X15589110Y-13643674D01*
X15589110Y-13643674D02*
X15579587Y-13653198D01*
X15789110Y-13767484D02*
X15770063Y-13757960D01*
X15770063Y-13757960D02*
X15760539Y-13748436D01*
X15760539Y-13748436D02*
X15751015Y-13729388D01*
X15751015Y-13729388D02*
X15751015Y-13672246D01*
X15751015Y-13672246D02*
X15760539Y-13653198D01*
X15760539Y-13653198D02*
X15770063Y-13643674D01*
X15770063Y-13643674D02*
X15789110Y-13634150D01*
X15789110Y-13634150D02*
X15817682Y-13634150D01*
X15817682Y-13634150D02*
X15836730Y-13643674D01*
X15836730Y-13643674D02*
X15846253Y-13653198D01*
X15846253Y-13653198D02*
X15855777Y-13672246D01*
X15855777Y-13672246D02*
X15855777Y-13729388D01*
X15855777Y-13729388D02*
X15846253Y-13748436D01*
X15846253Y-13748436D02*
X15836730Y-13757960D01*
X15836730Y-13757960D02*
X15817682Y-13767484D01*
X15817682Y-13767484D02*
X15789110Y-13767484D01*
X15970063Y-13767484D02*
X15951015Y-13757960D01*
X15951015Y-13757960D02*
X15941491Y-13738912D01*
X15941491Y-13738912D02*
X15941491Y-13567484D01*
X16122444Y-13757960D02*
X16103396Y-13767484D01*
X16103396Y-13767484D02*
X16065301Y-13767484D01*
X16065301Y-13767484D02*
X16046253Y-13757960D01*
X16046253Y-13757960D02*
X16036730Y-13738912D01*
X16036730Y-13738912D02*
X16036730Y-13662722D01*
X16036730Y-13662722D02*
X16046253Y-13643674D01*
X16046253Y-13643674D02*
X16065301Y-13634150D01*
X16065301Y-13634150D02*
X16103396Y-13634150D01*
X16103396Y-13634150D02*
X16122444Y-13643674D01*
X16122444Y-13643674D02*
X16131968Y-13662722D01*
X16131968Y-13662722D02*
X16131968Y-13681769D01*
X16131968Y-13681769D02*
X16036730Y-13700817D01*
X16208158Y-13757960D02*
X16227206Y-13767484D01*
X16227206Y-13767484D02*
X16265301Y-13767484D01*
X16265301Y-13767484D02*
X16284349Y-13757960D01*
X16284349Y-13757960D02*
X16293872Y-13738912D01*
X16293872Y-13738912D02*
X16293872Y-13729388D01*
X16293872Y-13729388D02*
X16284349Y-13710341D01*
X16284349Y-13710341D02*
X16265301Y-13700817D01*
X16265301Y-13700817D02*
X16236730Y-13700817D01*
X16236730Y-13700817D02*
X16217682Y-13691293D01*
X16217682Y-13691293D02*
X16208158Y-13672246D01*
X16208158Y-13672246D02*
X16208158Y-13662722D01*
X16208158Y-13662722D02*
X16217682Y-13643674D01*
X16217682Y-13643674D02*
X16236730Y-13634150D01*
X16236730Y-13634150D02*
X16265301Y-13634150D01*
X16265301Y-13634150D02*
X16284349Y-13643674D01*
X16360539Y-13843674D02*
X16370063Y-13834150D01*
X16370063Y-13834150D02*
X16389111Y-13805579D01*
X16389111Y-13805579D02*
X16398634Y-13786531D01*
X16398634Y-13786531D02*
X16408158Y-13757960D01*
X16408158Y-13757960D02*
X16417682Y-13710341D01*
X16417682Y-13710341D02*
X16417682Y-13672246D01*
X16417682Y-13672246D02*
X16408158Y-13624627D01*
X16408158Y-13624627D02*
X16398634Y-13596055D01*
X16398634Y-13596055D02*
X16389111Y-13577008D01*
X16389111Y-13577008D02*
X16370063Y-13548436D01*
X16370063Y-13548436D02*
X16360539Y-13538912D01*
M02*
