M48
; DRILL file {KiCad 7.0.9} date Tue Mar 19 10:53:31 2024
; FORMAT={-:-/ absolute / inch / decimal}
; #@! TF.CreationDate,2024-03-19T10:53:31-03:00
; #@! TF.GenerationSoftware,Kicad,Pcbnew,7.0.9
; #@! TF.FileFunction,Plated,1,2,PTH
FMAT,2
INCH
; #@! TA.AperFunction,Plated,PTH,ViaDrill
T1C0.0118
; #@! TA.AperFunction,Plated,PTH,ViaDrill
T2C0.0157
; #@! TA.AperFunction,Plated,PTH,ComponentDrill
T3C0.0315
; #@! TA.AperFunction,Plated,PTH,ComponentDrill
T4C0.0394
%
G90
G05
T1
X4.8079Y-4.2961
X4.9795Y-4.3276
T2
X4.5679Y-4.6909
X4.5679Y-4.7333
X4.5699Y-3.4921
X4.5699Y-3.5344
X4.5866Y-4.3504
X4.6289Y-4.3504
X4.7598Y-4.4803
X4.798Y-3.61
X4.8002Y-4.6211
X4.8022Y-4.4803
X4.8404Y-3.61
X4.8425Y-4.6211
X4.872Y-3.8238
X4.8917Y-4.4813
X4.9144Y-3.8238
X4.9341Y-4.4813
X4.9862Y-4.4675
X4.9862Y-4.5098
X5.1764Y-4.0165
X5.2098Y-4.2075
X5.2628Y-3.7963
X5.263Y-3.9457
X5.3051Y-3.7963
X5.3984Y-3.6008
X5.4065Y-3.9252
X5.4488Y-3.9252
X5.4992Y-3.6016
X5.5807Y-4.3022
X5.5807Y-4.3445
X5.5937Y-3.8071
X5.6252Y-4.3236
X5.6614Y-3.7805
X5.6661Y-4.3817
X5.6882Y-4.0992
X5.7037Y-3.7805
X5.7157Y-4.048
X5.7311Y-4.1189
X5.7512Y-3.9969
X5.763Y-4.4535
X5.7906Y-4.4142
X5.8417Y-3.9654
X5.8669Y-4.1008
X5.8772Y-4.2528
X5.8811Y-3.9417
X5.8907Y-4.1555
X5.9047Y-4.611
X5.9331Y-4.1555
X5.9764Y-4.2264
X5.9764Y-4.2687
X5.9886Y-3.9587
X6.003Y-4.0659
X6.003Y-4.1083
X6.0125Y-4.019
X6.1406Y-3.9585
X6.1407Y-3.7667
X6.1407Y-3.8091
X6.2039Y-3.8315
X6.2362Y-4.4035
X6.2756Y-4.3238
X6.3179Y-4.3238
X6.3502Y-3.6061
X6.4683Y-4.2764
X6.4685Y-4.3213
X6.6291Y-4.115
X6.6486Y-4.3169
X6.6909Y-4.3169
X6.7547Y-4.178
X6.7941Y-4.178
X6.9053Y-4.1799
X6.9075Y-4.3159
X6.9398Y-3.972
X6.9398Y-4.0096
X6.9407Y-4.1799
X6.9498Y-4.3159
X6.9831Y-3.7537
X6.9988Y-4.5047
X6.9998Y-4.6494
X7.0569Y-4.2813
X7.0569Y-4.3374
X7.1179Y-3.6652
X7.1179Y-3.7537
X7.1185Y-3.9701
X7.1189Y-4.0077
X7.1209Y-4.363
X7.1563Y-4.4201
X7.1563Y-4.485
X7.1624Y-3.4892
X7.1624Y-3.5315
X7.1701Y-4.6917
X7.1701Y-4.7409
T3
X5.0693Y-4.0154
X5.0693Y-4.2075
X6.999Y-4.4476
X7.0974Y-4.4476
T4
X4.5868Y-3.9614
X4.5868Y-4.0614
X4.5868Y-4.1614
X4.5868Y-4.2614
X4.6984Y-3.5114
X4.6996Y-4.7114
X4.7984Y-3.5114
X4.7996Y-4.7114
X4.8984Y-3.5114
X4.8996Y-4.7114
X4.9984Y-3.5114
X4.9996Y-4.7114
X5.0984Y-3.5114
X5.0996Y-4.7114
X5.1984Y-3.5114
X5.1996Y-4.7114
X5.2984Y-3.5114
X5.2996Y-4.7114
X5.3984Y-3.5114
X5.3996Y-4.7114
X5.4984Y-3.5114
X5.4996Y-4.7114
X5.5984Y-3.5114
X5.5996Y-4.7114
X5.6984Y-3.5114
X5.6996Y-4.7114
X5.7984Y-3.5114
X5.7996Y-4.7114
X5.8984Y-3.5114
X5.8996Y-4.7114
X5.9984Y-3.5114
X5.9996Y-4.7114
X6.0984Y-3.5114
X6.0996Y-4.7114
X6.1984Y-3.5114
X6.1996Y-4.7114
X6.2984Y-3.5114
X6.2996Y-4.7114
X6.3984Y-3.5114
X6.3996Y-4.7114
X6.4984Y-3.5114
X6.4996Y-4.7114
X6.5984Y-3.5114
X6.5996Y-4.7114
X6.6984Y-3.5114
X6.6996Y-4.7114
X6.7984Y-3.5114
X6.7996Y-4.7114
X6.8984Y-3.5114
X6.8996Y-4.7114
X6.9984Y-3.5114
X6.9996Y-4.7114
X7.0984Y-3.5114
X7.0996Y-4.7114
T0
M30
