%TF.GenerationSoftware,KiCad,Pcbnew,7.0.9*%
%TF.CreationDate,2024-02-20T11:35:56-03:00*%
%TF.ProjectId,CPU Stm32G431,43505520-5374-46d3-9332-473433312e6b,rev?*%
%TF.SameCoordinates,Original*%
%TF.FileFunction,Legend,Bot*%
%TF.FilePolarity,Positive*%
%FSLAX46Y46*%
G04 Gerber Fmt 4.6, Leading zero omitted, Abs format (unit mm)*
G04 Created by KiCad (PCBNEW 7.0.9) date 2024-02-20 11:35:56*
%MOMM*%
%LPD*%
G01*
G04 APERTURE LIST*
%ADD10C,0.500000*%
%ADD11C,0.150000*%
%ADD12C,0.120000*%
G04 APERTURE END LIST*
D10*
X166003607Y-108720000D02*
G75*
G03*
X166003607Y-108720000I-223607J0D01*
G01*
D11*
X145239580Y-109777142D02*
X145287200Y-109729523D01*
X145287200Y-109729523D02*
X145334819Y-109586666D01*
X145334819Y-109586666D02*
X145334819Y-109491428D01*
X145334819Y-109491428D02*
X145287200Y-109348571D01*
X145287200Y-109348571D02*
X145191961Y-109253333D01*
X145191961Y-109253333D02*
X145096723Y-109205714D01*
X145096723Y-109205714D02*
X144906247Y-109158095D01*
X144906247Y-109158095D02*
X144763390Y-109158095D01*
X144763390Y-109158095D02*
X144572914Y-109205714D01*
X144572914Y-109205714D02*
X144477676Y-109253333D01*
X144477676Y-109253333D02*
X144382438Y-109348571D01*
X144382438Y-109348571D02*
X144334819Y-109491428D01*
X144334819Y-109491428D02*
X144334819Y-109586666D01*
X144334819Y-109586666D02*
X144382438Y-109729523D01*
X144382438Y-109729523D02*
X144430057Y-109777142D01*
X145334819Y-110729523D02*
X145334819Y-110158095D01*
X145334819Y-110443809D02*
X144334819Y-110443809D01*
X144334819Y-110443809D02*
X144477676Y-110348571D01*
X144477676Y-110348571D02*
X144572914Y-110253333D01*
X144572914Y-110253333D02*
X144620533Y-110158095D01*
X145334819Y-111681904D02*
X145334819Y-111110476D01*
X145334819Y-111396190D02*
X144334819Y-111396190D01*
X144334819Y-111396190D02*
X144477676Y-111300952D01*
X144477676Y-111300952D02*
X144572914Y-111205714D01*
X144572914Y-111205714D02*
X144620533Y-111110476D01*
X150434819Y-110781905D02*
X149434819Y-110781905D01*
X149434819Y-110781905D02*
X149434819Y-111020000D01*
X149434819Y-111020000D02*
X149482438Y-111162857D01*
X149482438Y-111162857D02*
X149577676Y-111258095D01*
X149577676Y-111258095D02*
X149672914Y-111305714D01*
X149672914Y-111305714D02*
X149863390Y-111353333D01*
X149863390Y-111353333D02*
X150006247Y-111353333D01*
X150006247Y-111353333D02*
X150196723Y-111305714D01*
X150196723Y-111305714D02*
X150291961Y-111258095D01*
X150291961Y-111258095D02*
X150387200Y-111162857D01*
X150387200Y-111162857D02*
X150434819Y-111020000D01*
X150434819Y-111020000D02*
X150434819Y-110781905D01*
X150434819Y-112305714D02*
X150434819Y-111734286D01*
X150434819Y-112020000D02*
X149434819Y-112020000D01*
X149434819Y-112020000D02*
X149577676Y-111924762D01*
X149577676Y-111924762D02*
X149672914Y-111829524D01*
X149672914Y-111829524D02*
X149720533Y-111734286D01*
X159834819Y-98358095D02*
X160644342Y-98358095D01*
X160644342Y-98358095D02*
X160739580Y-98405714D01*
X160739580Y-98405714D02*
X160787200Y-98453333D01*
X160787200Y-98453333D02*
X160834819Y-98548571D01*
X160834819Y-98548571D02*
X160834819Y-98739047D01*
X160834819Y-98739047D02*
X160787200Y-98834285D01*
X160787200Y-98834285D02*
X160739580Y-98881904D01*
X160739580Y-98881904D02*
X160644342Y-98929523D01*
X160644342Y-98929523D02*
X159834819Y-98929523D01*
X159834819Y-99310476D02*
X159834819Y-99929523D01*
X159834819Y-99929523D02*
X160215771Y-99596190D01*
X160215771Y-99596190D02*
X160215771Y-99739047D01*
X160215771Y-99739047D02*
X160263390Y-99834285D01*
X160263390Y-99834285D02*
X160311009Y-99881904D01*
X160311009Y-99881904D02*
X160406247Y-99929523D01*
X160406247Y-99929523D02*
X160644342Y-99929523D01*
X160644342Y-99929523D02*
X160739580Y-99881904D01*
X160739580Y-99881904D02*
X160787200Y-99834285D01*
X160787200Y-99834285D02*
X160834819Y-99739047D01*
X160834819Y-99739047D02*
X160834819Y-99453333D01*
X160834819Y-99453333D02*
X160787200Y-99358095D01*
X160787200Y-99358095D02*
X160739580Y-99310476D01*
X137534819Y-96653333D02*
X137058628Y-96320000D01*
X137534819Y-96081905D02*
X136534819Y-96081905D01*
X136534819Y-96081905D02*
X136534819Y-96462857D01*
X136534819Y-96462857D02*
X136582438Y-96558095D01*
X136582438Y-96558095D02*
X136630057Y-96605714D01*
X136630057Y-96605714D02*
X136725295Y-96653333D01*
X136725295Y-96653333D02*
X136868152Y-96653333D01*
X136868152Y-96653333D02*
X136963390Y-96605714D01*
X136963390Y-96605714D02*
X137011009Y-96558095D01*
X137011009Y-96558095D02*
X137058628Y-96462857D01*
X137058628Y-96462857D02*
X137058628Y-96081905D01*
X136868152Y-97510476D02*
X137534819Y-97510476D01*
X136487200Y-97272381D02*
X137201485Y-97034286D01*
X137201485Y-97034286D02*
X137201485Y-97653333D01*
X152939580Y-103477142D02*
X152987200Y-103429523D01*
X152987200Y-103429523D02*
X153034819Y-103286666D01*
X153034819Y-103286666D02*
X153034819Y-103191428D01*
X153034819Y-103191428D02*
X152987200Y-103048571D01*
X152987200Y-103048571D02*
X152891961Y-102953333D01*
X152891961Y-102953333D02*
X152796723Y-102905714D01*
X152796723Y-102905714D02*
X152606247Y-102858095D01*
X152606247Y-102858095D02*
X152463390Y-102858095D01*
X152463390Y-102858095D02*
X152272914Y-102905714D01*
X152272914Y-102905714D02*
X152177676Y-102953333D01*
X152177676Y-102953333D02*
X152082438Y-103048571D01*
X152082438Y-103048571D02*
X152034819Y-103191428D01*
X152034819Y-103191428D02*
X152034819Y-103286666D01*
X152034819Y-103286666D02*
X152082438Y-103429523D01*
X152082438Y-103429523D02*
X152130057Y-103477142D01*
X153034819Y-104429523D02*
X153034819Y-103858095D01*
X153034819Y-104143809D02*
X152034819Y-104143809D01*
X152034819Y-104143809D02*
X152177676Y-104048571D01*
X152177676Y-104048571D02*
X152272914Y-103953333D01*
X152272914Y-103953333D02*
X152320533Y-103858095D01*
X152130057Y-104810476D02*
X152082438Y-104858095D01*
X152082438Y-104858095D02*
X152034819Y-104953333D01*
X152034819Y-104953333D02*
X152034819Y-105191428D01*
X152034819Y-105191428D02*
X152082438Y-105286666D01*
X152082438Y-105286666D02*
X152130057Y-105334285D01*
X152130057Y-105334285D02*
X152225295Y-105381904D01*
X152225295Y-105381904D02*
X152320533Y-105381904D01*
X152320533Y-105381904D02*
X152463390Y-105334285D01*
X152463390Y-105334285D02*
X153034819Y-104762857D01*
X153034819Y-104762857D02*
X153034819Y-105381904D01*
X116494819Y-119336666D02*
X117209104Y-119336666D01*
X117209104Y-119336666D02*
X117351961Y-119289047D01*
X117351961Y-119289047D02*
X117447200Y-119193809D01*
X117447200Y-119193809D02*
X117494819Y-119050952D01*
X117494819Y-119050952D02*
X117494819Y-118955714D01*
X116590057Y-119765238D02*
X116542438Y-119812857D01*
X116542438Y-119812857D02*
X116494819Y-119908095D01*
X116494819Y-119908095D02*
X116494819Y-120146190D01*
X116494819Y-120146190D02*
X116542438Y-120241428D01*
X116542438Y-120241428D02*
X116590057Y-120289047D01*
X116590057Y-120289047D02*
X116685295Y-120336666D01*
X116685295Y-120336666D02*
X116780533Y-120336666D01*
X116780533Y-120336666D02*
X116923390Y-120289047D01*
X116923390Y-120289047D02*
X117494819Y-119717619D01*
X117494819Y-119717619D02*
X117494819Y-120336666D01*
X150434819Y-114581905D02*
X149434819Y-114581905D01*
X149434819Y-114581905D02*
X149434819Y-114820000D01*
X149434819Y-114820000D02*
X149482438Y-114962857D01*
X149482438Y-114962857D02*
X149577676Y-115058095D01*
X149577676Y-115058095D02*
X149672914Y-115105714D01*
X149672914Y-115105714D02*
X149863390Y-115153333D01*
X149863390Y-115153333D02*
X150006247Y-115153333D01*
X150006247Y-115153333D02*
X150196723Y-115105714D01*
X150196723Y-115105714D02*
X150291961Y-115058095D01*
X150291961Y-115058095D02*
X150387200Y-114962857D01*
X150387200Y-114962857D02*
X150434819Y-114820000D01*
X150434819Y-114820000D02*
X150434819Y-114581905D01*
X149530057Y-115534286D02*
X149482438Y-115581905D01*
X149482438Y-115581905D02*
X149434819Y-115677143D01*
X149434819Y-115677143D02*
X149434819Y-115915238D01*
X149434819Y-115915238D02*
X149482438Y-116010476D01*
X149482438Y-116010476D02*
X149530057Y-116058095D01*
X149530057Y-116058095D02*
X149625295Y-116105714D01*
X149625295Y-116105714D02*
X149720533Y-116105714D01*
X149720533Y-116105714D02*
X149863390Y-116058095D01*
X149863390Y-116058095D02*
X150434819Y-115486667D01*
X150434819Y-115486667D02*
X150434819Y-116105714D01*
X162639580Y-112353333D02*
X162687200Y-112305714D01*
X162687200Y-112305714D02*
X162734819Y-112162857D01*
X162734819Y-112162857D02*
X162734819Y-112067619D01*
X162734819Y-112067619D02*
X162687200Y-111924762D01*
X162687200Y-111924762D02*
X162591961Y-111829524D01*
X162591961Y-111829524D02*
X162496723Y-111781905D01*
X162496723Y-111781905D02*
X162306247Y-111734286D01*
X162306247Y-111734286D02*
X162163390Y-111734286D01*
X162163390Y-111734286D02*
X161972914Y-111781905D01*
X161972914Y-111781905D02*
X161877676Y-111829524D01*
X161877676Y-111829524D02*
X161782438Y-111924762D01*
X161782438Y-111924762D02*
X161734819Y-112067619D01*
X161734819Y-112067619D02*
X161734819Y-112162857D01*
X161734819Y-112162857D02*
X161782438Y-112305714D01*
X161782438Y-112305714D02*
X161830057Y-112353333D01*
X162734819Y-112829524D02*
X162734819Y-113020000D01*
X162734819Y-113020000D02*
X162687200Y-113115238D01*
X162687200Y-113115238D02*
X162639580Y-113162857D01*
X162639580Y-113162857D02*
X162496723Y-113258095D01*
X162496723Y-113258095D02*
X162306247Y-113305714D01*
X162306247Y-113305714D02*
X161925295Y-113305714D01*
X161925295Y-113305714D02*
X161830057Y-113258095D01*
X161830057Y-113258095D02*
X161782438Y-113210476D01*
X161782438Y-113210476D02*
X161734819Y-113115238D01*
X161734819Y-113115238D02*
X161734819Y-112924762D01*
X161734819Y-112924762D02*
X161782438Y-112829524D01*
X161782438Y-112829524D02*
X161830057Y-112781905D01*
X161830057Y-112781905D02*
X161925295Y-112734286D01*
X161925295Y-112734286D02*
X162163390Y-112734286D01*
X162163390Y-112734286D02*
X162258628Y-112781905D01*
X162258628Y-112781905D02*
X162306247Y-112829524D01*
X162306247Y-112829524D02*
X162353866Y-112924762D01*
X162353866Y-112924762D02*
X162353866Y-113115238D01*
X162353866Y-113115238D02*
X162306247Y-113210476D01*
X162306247Y-113210476D02*
X162258628Y-113258095D01*
X162258628Y-113258095D02*
X162163390Y-113305714D01*
X116464819Y-88856666D02*
X117179104Y-88856666D01*
X117179104Y-88856666D02*
X117321961Y-88809047D01*
X117321961Y-88809047D02*
X117417200Y-88713809D01*
X117417200Y-88713809D02*
X117464819Y-88570952D01*
X117464819Y-88570952D02*
X117464819Y-88475714D01*
X116464819Y-89237619D02*
X116464819Y-89856666D01*
X116464819Y-89856666D02*
X116845771Y-89523333D01*
X116845771Y-89523333D02*
X116845771Y-89666190D01*
X116845771Y-89666190D02*
X116893390Y-89761428D01*
X116893390Y-89761428D02*
X116941009Y-89809047D01*
X116941009Y-89809047D02*
X117036247Y-89856666D01*
X117036247Y-89856666D02*
X117274342Y-89856666D01*
X117274342Y-89856666D02*
X117369580Y-89809047D01*
X117369580Y-89809047D02*
X117417200Y-89761428D01*
X117417200Y-89761428D02*
X117464819Y-89666190D01*
X117464819Y-89666190D02*
X117464819Y-89380476D01*
X117464819Y-89380476D02*
X117417200Y-89285238D01*
X117417200Y-89285238D02*
X117369580Y-89237619D01*
X167039580Y-101477142D02*
X167087200Y-101429523D01*
X167087200Y-101429523D02*
X167134819Y-101286666D01*
X167134819Y-101286666D02*
X167134819Y-101191428D01*
X167134819Y-101191428D02*
X167087200Y-101048571D01*
X167087200Y-101048571D02*
X166991961Y-100953333D01*
X166991961Y-100953333D02*
X166896723Y-100905714D01*
X166896723Y-100905714D02*
X166706247Y-100858095D01*
X166706247Y-100858095D02*
X166563390Y-100858095D01*
X166563390Y-100858095D02*
X166372914Y-100905714D01*
X166372914Y-100905714D02*
X166277676Y-100953333D01*
X166277676Y-100953333D02*
X166182438Y-101048571D01*
X166182438Y-101048571D02*
X166134819Y-101191428D01*
X166134819Y-101191428D02*
X166134819Y-101286666D01*
X166134819Y-101286666D02*
X166182438Y-101429523D01*
X166182438Y-101429523D02*
X166230057Y-101477142D01*
X167134819Y-102429523D02*
X167134819Y-101858095D01*
X167134819Y-102143809D02*
X166134819Y-102143809D01*
X166134819Y-102143809D02*
X166277676Y-102048571D01*
X166277676Y-102048571D02*
X166372914Y-101953333D01*
X166372914Y-101953333D02*
X166420533Y-101858095D01*
X166134819Y-102762857D02*
X166134819Y-103429523D01*
X166134819Y-103429523D02*
X167134819Y-103000952D01*
X141839580Y-109777142D02*
X141887200Y-109729523D01*
X141887200Y-109729523D02*
X141934819Y-109586666D01*
X141934819Y-109586666D02*
X141934819Y-109491428D01*
X141934819Y-109491428D02*
X141887200Y-109348571D01*
X141887200Y-109348571D02*
X141791961Y-109253333D01*
X141791961Y-109253333D02*
X141696723Y-109205714D01*
X141696723Y-109205714D02*
X141506247Y-109158095D01*
X141506247Y-109158095D02*
X141363390Y-109158095D01*
X141363390Y-109158095D02*
X141172914Y-109205714D01*
X141172914Y-109205714D02*
X141077676Y-109253333D01*
X141077676Y-109253333D02*
X140982438Y-109348571D01*
X140982438Y-109348571D02*
X140934819Y-109491428D01*
X140934819Y-109491428D02*
X140934819Y-109586666D01*
X140934819Y-109586666D02*
X140982438Y-109729523D01*
X140982438Y-109729523D02*
X141030057Y-109777142D01*
X141934819Y-110729523D02*
X141934819Y-110158095D01*
X141934819Y-110443809D02*
X140934819Y-110443809D01*
X140934819Y-110443809D02*
X141077676Y-110348571D01*
X141077676Y-110348571D02*
X141172914Y-110253333D01*
X141172914Y-110253333D02*
X141220533Y-110158095D01*
X140934819Y-111586666D02*
X140934819Y-111396190D01*
X140934819Y-111396190D02*
X140982438Y-111300952D01*
X140982438Y-111300952D02*
X141030057Y-111253333D01*
X141030057Y-111253333D02*
X141172914Y-111158095D01*
X141172914Y-111158095D02*
X141363390Y-111110476D01*
X141363390Y-111110476D02*
X141744342Y-111110476D01*
X141744342Y-111110476D02*
X141839580Y-111158095D01*
X141839580Y-111158095D02*
X141887200Y-111205714D01*
X141887200Y-111205714D02*
X141934819Y-111300952D01*
X141934819Y-111300952D02*
X141934819Y-111491428D01*
X141934819Y-111491428D02*
X141887200Y-111586666D01*
X141887200Y-111586666D02*
X141839580Y-111634285D01*
X141839580Y-111634285D02*
X141744342Y-111681904D01*
X141744342Y-111681904D02*
X141506247Y-111681904D01*
X141506247Y-111681904D02*
X141411009Y-111634285D01*
X141411009Y-111634285D02*
X141363390Y-111586666D01*
X141363390Y-111586666D02*
X141315771Y-111491428D01*
X141315771Y-111491428D02*
X141315771Y-111300952D01*
X141315771Y-111300952D02*
X141363390Y-111205714D01*
X141363390Y-111205714D02*
X141411009Y-111158095D01*
X141411009Y-111158095D02*
X141506247Y-111110476D01*
X175424819Y-115191905D02*
X174424819Y-115191905D01*
X174424819Y-115191905D02*
X174424819Y-115430000D01*
X174424819Y-115430000D02*
X174472438Y-115572857D01*
X174472438Y-115572857D02*
X174567676Y-115668095D01*
X174567676Y-115668095D02*
X174662914Y-115715714D01*
X174662914Y-115715714D02*
X174853390Y-115763333D01*
X174853390Y-115763333D02*
X174996247Y-115763333D01*
X174996247Y-115763333D02*
X175186723Y-115715714D01*
X175186723Y-115715714D02*
X175281961Y-115668095D01*
X175281961Y-115668095D02*
X175377200Y-115572857D01*
X175377200Y-115572857D02*
X175424819Y-115430000D01*
X175424819Y-115430000D02*
X175424819Y-115191905D01*
X174424819Y-116668095D02*
X174424819Y-116191905D01*
X174424819Y-116191905D02*
X174901009Y-116144286D01*
X174901009Y-116144286D02*
X174853390Y-116191905D01*
X174853390Y-116191905D02*
X174805771Y-116287143D01*
X174805771Y-116287143D02*
X174805771Y-116525238D01*
X174805771Y-116525238D02*
X174853390Y-116620476D01*
X174853390Y-116620476D02*
X174901009Y-116668095D01*
X174901009Y-116668095D02*
X174996247Y-116715714D01*
X174996247Y-116715714D02*
X175234342Y-116715714D01*
X175234342Y-116715714D02*
X175329580Y-116668095D01*
X175329580Y-116668095D02*
X175377200Y-116620476D01*
X175377200Y-116620476D02*
X175424819Y-116525238D01*
X175424819Y-116525238D02*
X175424819Y-116287143D01*
X175424819Y-116287143D02*
X175377200Y-116191905D01*
X175377200Y-116191905D02*
X175329580Y-116144286D01*
X140134819Y-96613333D02*
X139658628Y-96280000D01*
X140134819Y-96041905D02*
X139134819Y-96041905D01*
X139134819Y-96041905D02*
X139134819Y-96422857D01*
X139134819Y-96422857D02*
X139182438Y-96518095D01*
X139182438Y-96518095D02*
X139230057Y-96565714D01*
X139230057Y-96565714D02*
X139325295Y-96613333D01*
X139325295Y-96613333D02*
X139468152Y-96613333D01*
X139468152Y-96613333D02*
X139563390Y-96565714D01*
X139563390Y-96565714D02*
X139611009Y-96518095D01*
X139611009Y-96518095D02*
X139658628Y-96422857D01*
X139658628Y-96422857D02*
X139658628Y-96041905D01*
X139134819Y-97518095D02*
X139134819Y-97041905D01*
X139134819Y-97041905D02*
X139611009Y-96994286D01*
X139611009Y-96994286D02*
X139563390Y-97041905D01*
X139563390Y-97041905D02*
X139515771Y-97137143D01*
X139515771Y-97137143D02*
X139515771Y-97375238D01*
X139515771Y-97375238D02*
X139563390Y-97470476D01*
X139563390Y-97470476D02*
X139611009Y-97518095D01*
X139611009Y-97518095D02*
X139706247Y-97565714D01*
X139706247Y-97565714D02*
X139944342Y-97565714D01*
X139944342Y-97565714D02*
X140039580Y-97518095D01*
X140039580Y-97518095D02*
X140087200Y-97470476D01*
X140087200Y-97470476D02*
X140134819Y-97375238D01*
X140134819Y-97375238D02*
X140134819Y-97137143D01*
X140134819Y-97137143D02*
X140087200Y-97041905D01*
X140087200Y-97041905D02*
X140039580Y-96994286D01*
X156739580Y-103477142D02*
X156787200Y-103429523D01*
X156787200Y-103429523D02*
X156834819Y-103286666D01*
X156834819Y-103286666D02*
X156834819Y-103191428D01*
X156834819Y-103191428D02*
X156787200Y-103048571D01*
X156787200Y-103048571D02*
X156691961Y-102953333D01*
X156691961Y-102953333D02*
X156596723Y-102905714D01*
X156596723Y-102905714D02*
X156406247Y-102858095D01*
X156406247Y-102858095D02*
X156263390Y-102858095D01*
X156263390Y-102858095D02*
X156072914Y-102905714D01*
X156072914Y-102905714D02*
X155977676Y-102953333D01*
X155977676Y-102953333D02*
X155882438Y-103048571D01*
X155882438Y-103048571D02*
X155834819Y-103191428D01*
X155834819Y-103191428D02*
X155834819Y-103286666D01*
X155834819Y-103286666D02*
X155882438Y-103429523D01*
X155882438Y-103429523D02*
X155930057Y-103477142D01*
X156834819Y-104429523D02*
X156834819Y-103858095D01*
X156834819Y-104143809D02*
X155834819Y-104143809D01*
X155834819Y-104143809D02*
X155977676Y-104048571D01*
X155977676Y-104048571D02*
X156072914Y-103953333D01*
X156072914Y-103953333D02*
X156120533Y-103858095D01*
X155834819Y-104762857D02*
X155834819Y-105381904D01*
X155834819Y-105381904D02*
X156215771Y-105048571D01*
X156215771Y-105048571D02*
X156215771Y-105191428D01*
X156215771Y-105191428D02*
X156263390Y-105286666D01*
X156263390Y-105286666D02*
X156311009Y-105334285D01*
X156311009Y-105334285D02*
X156406247Y-105381904D01*
X156406247Y-105381904D02*
X156644342Y-105381904D01*
X156644342Y-105381904D02*
X156739580Y-105334285D01*
X156739580Y-105334285D02*
X156787200Y-105286666D01*
X156787200Y-105286666D02*
X156834819Y-105191428D01*
X156834819Y-105191428D02*
X156834819Y-104905714D01*
X156834819Y-104905714D02*
X156787200Y-104810476D01*
X156787200Y-104810476D02*
X156739580Y-104762857D01*
X159034819Y-93053333D02*
X158558628Y-92720000D01*
X159034819Y-92481905D02*
X158034819Y-92481905D01*
X158034819Y-92481905D02*
X158034819Y-92862857D01*
X158034819Y-92862857D02*
X158082438Y-92958095D01*
X158082438Y-92958095D02*
X158130057Y-93005714D01*
X158130057Y-93005714D02*
X158225295Y-93053333D01*
X158225295Y-93053333D02*
X158368152Y-93053333D01*
X158368152Y-93053333D02*
X158463390Y-93005714D01*
X158463390Y-93005714D02*
X158511009Y-92958095D01*
X158511009Y-92958095D02*
X158558628Y-92862857D01*
X158558628Y-92862857D02*
X158558628Y-92481905D01*
X158130057Y-93434286D02*
X158082438Y-93481905D01*
X158082438Y-93481905D02*
X158034819Y-93577143D01*
X158034819Y-93577143D02*
X158034819Y-93815238D01*
X158034819Y-93815238D02*
X158082438Y-93910476D01*
X158082438Y-93910476D02*
X158130057Y-93958095D01*
X158130057Y-93958095D02*
X158225295Y-94005714D01*
X158225295Y-94005714D02*
X158320533Y-94005714D01*
X158320533Y-94005714D02*
X158463390Y-93958095D01*
X158463390Y-93958095D02*
X159034819Y-93386667D01*
X159034819Y-93386667D02*
X159034819Y-94005714D01*
X150034819Y-106353333D02*
X149558628Y-106020000D01*
X150034819Y-105781905D02*
X149034819Y-105781905D01*
X149034819Y-105781905D02*
X149034819Y-106162857D01*
X149034819Y-106162857D02*
X149082438Y-106258095D01*
X149082438Y-106258095D02*
X149130057Y-106305714D01*
X149130057Y-106305714D02*
X149225295Y-106353333D01*
X149225295Y-106353333D02*
X149368152Y-106353333D01*
X149368152Y-106353333D02*
X149463390Y-106305714D01*
X149463390Y-106305714D02*
X149511009Y-106258095D01*
X149511009Y-106258095D02*
X149558628Y-106162857D01*
X149558628Y-106162857D02*
X149558628Y-105781905D01*
X150034819Y-107305714D02*
X150034819Y-106734286D01*
X150034819Y-107020000D02*
X149034819Y-107020000D01*
X149034819Y-107020000D02*
X149177676Y-106924762D01*
X149177676Y-106924762D02*
X149272914Y-106829524D01*
X149272914Y-106829524D02*
X149320533Y-106734286D01*
D12*
%TO.C,C11*%
X145515000Y-106758748D02*
X145515000Y-107281252D01*
X144045000Y-106758748D02*
X144045000Y-107281252D01*
%TO.C,D1*%
X150870000Y-109870000D02*
X156380000Y-109870000D01*
X150870000Y-113170000D02*
X150870000Y-109870000D01*
X150870000Y-113170000D02*
X156380000Y-113170000D01*
%TO.C,U3*%
X159820000Y-104420000D02*
X159820000Y-106370000D01*
X159820000Y-104420000D02*
X159820000Y-102470000D01*
X164940000Y-104420000D02*
X164940000Y-107870000D01*
X164940000Y-104420000D02*
X164940000Y-102470000D01*
%TO.C,R4*%
X137815000Y-93792936D02*
X137815000Y-94247064D01*
X136345000Y-93792936D02*
X136345000Y-94247064D01*
%TO.C,C12*%
X149945000Y-103381252D02*
X149945000Y-102858748D01*
X151415000Y-103381252D02*
X151415000Y-102858748D01*
%TO.C,J2*%
X181660000Y-118340000D02*
X181660000Y-121000000D01*
X120640000Y-118340000D02*
X181660000Y-118340000D01*
X120640000Y-118340000D02*
X120640000Y-121000000D01*
X119370000Y-118340000D02*
X118040000Y-118340000D01*
X118040000Y-118340000D02*
X118040000Y-119670000D01*
X120640000Y-121000000D02*
X181660000Y-121000000D01*
%TO.C,D2*%
X150870000Y-113670000D02*
X156380000Y-113670000D01*
X150870000Y-116970000D02*
X150870000Y-113670000D01*
X150870000Y-116970000D02*
X156380000Y-116970000D01*
%TO.C,C9*%
X159245000Y-112781252D02*
X159245000Y-112258748D01*
X160715000Y-112781252D02*
X160715000Y-112258748D01*
%TO.C,J3*%
X181630000Y-87860000D02*
X181630000Y-90520000D01*
X120610000Y-87860000D02*
X181630000Y-87860000D01*
X120610000Y-87860000D02*
X120610000Y-90520000D01*
X119340000Y-87860000D02*
X118010000Y-87860000D01*
X118010000Y-87860000D02*
X118010000Y-89190000D01*
X120610000Y-90520000D02*
X181630000Y-90520000D01*
%TO.C,C17*%
X165945000Y-105918752D02*
X165945000Y-105396248D01*
X167415000Y-105918752D02*
X167415000Y-105396248D01*
%TO.C,C16*%
X141045000Y-107281252D02*
X141045000Y-106758748D01*
X142515000Y-107281252D02*
X142515000Y-106758748D01*
%TO.C,D5*%
X182750000Y-117620000D02*
X177240000Y-117620000D01*
X182750000Y-114320000D02*
X182750000Y-117620000D01*
X182750000Y-114320000D02*
X177240000Y-114320000D01*
%TO.C,R5*%
X140415000Y-93752936D02*
X140415000Y-94207064D01*
X138945000Y-93752936D02*
X138945000Y-94207064D01*
%TO.C,C13*%
X153745000Y-103381252D02*
X153745000Y-102858748D01*
X155215000Y-103381252D02*
X155215000Y-102858748D01*
%TO.C,R2*%
X158807064Y-96155000D02*
X158352936Y-96155000D01*
X158807064Y-94685000D02*
X158352936Y-94685000D01*
%TO.C,R1*%
X147045000Y-107247064D02*
X147045000Y-106792936D01*
X148515000Y-107247064D02*
X148515000Y-106792936D01*
%TD*%
M02*
