%TF.GenerationSoftware,KiCad,Pcbnew,8.0.1*%
%TF.CreationDate,2024-03-27T10:15:15-03:00*%
%TF.ProjectId,CPU Stm32G431,43505520-5374-46d3-9332-473433312e6b,rev?*%
%TF.SameCoordinates,Original*%
%TF.FileFunction,Paste,Bot*%
%TF.FilePolarity,Positive*%
%FSLAX46Y46*%
G04 Gerber Fmt 4.6, Leading zero omitted, Abs format (unit mm)*
G04 Created by KiCad (PCBNEW 8.0.1) date 2024-03-27 10:15:15*
%MOMM*%
%LPD*%
G01*
G04 APERTURE LIST*
G04 Aperture macros list*
%AMRoundRect*
0 Rectangle with rounded corners*
0 $1 Rounding radius*
0 $2 $3 $4 $5 $6 $7 $8 $9 X,Y pos of 4 corners*
0 Add a 4 corners polygon primitive as box body*
4,1,4,$2,$3,$4,$5,$6,$7,$8,$9,$2,$3,0*
0 Add four circle primitives for the rounded corners*
1,1,$1+$1,$2,$3*
1,1,$1+$1,$4,$5*
1,1,$1+$1,$6,$7*
1,1,$1+$1,$8,$9*
0 Add four rect primitives between the rounded corners*
20,1,$1+$1,$2,$3,$4,$5,0*
20,1,$1+$1,$4,$5,$6,$7,0*
20,1,$1+$1,$6,$7,$8,$9,0*
20,1,$1+$1,$8,$9,$2,$3,0*%
G04 Aperture macros list end*
%ADD10RoundRect,0.250000X-0.337500X-0.475000X0.337500X-0.475000X0.337500X0.475000X-0.337500X0.475000X0*%
%ADD11RoundRect,0.250000X-1.000000X-0.650000X1.000000X-0.650000X1.000000X0.650000X-1.000000X0.650000X0*%
%ADD12RoundRect,0.150000X0.150000X-0.825000X0.150000X0.825000X-0.150000X0.825000X-0.150000X-0.825000X0*%
%ADD13RoundRect,0.250000X0.450000X-0.350000X0.450000X0.350000X-0.450000X0.350000X-0.450000X-0.350000X0*%
%ADD14RoundRect,0.250000X-0.475000X0.337500X-0.475000X-0.337500X0.475000X-0.337500X0.475000X0.337500X0*%
%ADD15RoundRect,0.250000X-0.450000X0.350000X-0.450000X-0.350000X0.450000X-0.350000X0.450000X0.350000X0*%
%ADD16RoundRect,0.250000X1.000000X0.650000X-1.000000X0.650000X-1.000000X-0.650000X1.000000X-0.650000X0*%
%ADD17RoundRect,0.250000X0.475000X-0.337500X0.475000X0.337500X-0.475000X0.337500X-0.475000X-0.337500X0*%
G04 APERTURE END LIST*
D10*
%TO.C,C17*%
X141362500Y-112400000D03*
X143437500Y-112400000D03*
%TD*%
D11*
%TO.C,D3*%
X152380000Y-111000000D03*
X156380000Y-111000000D03*
%TD*%
D12*
%TO.C,U2*%
X164285000Y-106895000D03*
X163015000Y-106895000D03*
X161745000Y-106895000D03*
X160475000Y-106895000D03*
X160475000Y-101945000D03*
X161745000Y-101945000D03*
X163015000Y-101945000D03*
X164285000Y-101945000D03*
%TD*%
D13*
%TO.C,R7*%
X160000000Y-97500000D03*
X160000000Y-95500000D03*
%TD*%
D14*
%TO.C,C14*%
X151600000Y-103362500D03*
X151600000Y-105437500D03*
%TD*%
%TO.C,C12*%
X148400000Y-105962500D03*
X148400000Y-108037500D03*
%TD*%
D15*
%TO.C,R5*%
X162500000Y-91700000D03*
X162500000Y-93700000D03*
%TD*%
D13*
%TO.C,R6*%
X162500000Y-97500000D03*
X162500000Y-95500000D03*
%TD*%
D11*
%TO.C,D4*%
X152375000Y-114800000D03*
X156375000Y-114800000D03*
%TD*%
D14*
%TO.C,C15*%
X146700000Y-101862500D03*
X146700000Y-103937500D03*
%TD*%
%TO.C,C13*%
X151700000Y-93362500D03*
X151700000Y-95437500D03*
%TD*%
%TO.C,C16*%
X155500000Y-103362500D03*
X155500000Y-105437500D03*
%TD*%
%TO.C,C11*%
X154100000Y-93362500D03*
X154100000Y-95437500D03*
%TD*%
D16*
%TO.C,D5*%
X181240000Y-116200000D03*
X177240000Y-116200000D03*
%TD*%
D15*
%TO.C,R4*%
X160000000Y-91700000D03*
X160000000Y-93700000D03*
%TD*%
D13*
%TO.C,R1*%
X143500000Y-109800000D03*
X143500000Y-107800000D03*
%TD*%
D17*
%TO.C,C6*%
X166700000Y-106637500D03*
X166700000Y-104562500D03*
%TD*%
D14*
%TO.C,C1*%
X142200000Y-96962500D03*
X142200000Y-99037500D03*
%TD*%
M02*
