%TF.GenerationSoftware,KiCad,Pcbnew,8.0.1*%
%TF.CreationDate,2024-03-27T10:15:15-03:00*%
%TF.ProjectId,CPU Stm32G431,43505520-5374-46d3-9332-473433312e6b,rev?*%
%TF.SameCoordinates,Original*%
%TF.FileFunction,Soldermask,Top*%
%TF.FilePolarity,Negative*%
%FSLAX46Y46*%
G04 Gerber Fmt 4.6, Leading zero omitted, Abs format (unit mm)*
G04 Created by KiCad (PCBNEW 8.0.1) date 2024-03-27 10:15:15*
%MOMM*%
%LPD*%
G01*
G04 APERTURE LIST*
G04 Aperture macros list*
%AMRoundRect*
0 Rectangle with rounded corners*
0 $1 Rounding radius*
0 $2 $3 $4 $5 $6 $7 $8 $9 X,Y pos of 4 corners*
0 Add a 4 corners polygon primitive as box body*
4,1,4,$2,$3,$4,$5,$6,$7,$8,$9,$2,$3,0*
0 Add four circle primitives for the rounded corners*
1,1,$1+$1,$2,$3*
1,1,$1+$1,$4,$5*
1,1,$1+$1,$6,$7*
1,1,$1+$1,$8,$9*
0 Add four rect primitives between the rounded corners*
20,1,$1+$1,$2,$3,$4,$5,0*
20,1,$1+$1,$4,$5,$6,$7,0*
20,1,$1+$1,$6,$7,$8,$9,0*
20,1,$1+$1,$8,$9,$2,$3,0*%
G04 Aperture macros list end*
%ADD10RoundRect,0.150000X-0.587500X-0.150000X0.587500X-0.150000X0.587500X0.150000X-0.587500X0.150000X0*%
%ADD11RoundRect,0.250000X-0.350000X-0.450000X0.350000X-0.450000X0.350000X0.450000X-0.350000X0.450000X0*%
%ADD12RoundRect,0.250000X-0.400000X-0.600000X0.400000X-0.600000X0.400000X0.600000X-0.400000X0.600000X0*%
%ADD13RoundRect,0.250000X-0.337500X-0.475000X0.337500X-0.475000X0.337500X0.475000X-0.337500X0.475000X0*%
%ADD14RoundRect,0.250000X0.475000X-0.337500X0.475000X0.337500X-0.475000X0.337500X-0.475000X-0.337500X0*%
%ADD15R,1.600000X1.600000*%
%ADD16C,1.600000*%
%ADD17RoundRect,0.250000X-0.475000X0.337500X-0.475000X-0.337500X0.475000X-0.337500X0.475000X0.337500X0*%
%ADD18RoundRect,0.250000X0.337500X0.475000X-0.337500X0.475000X-0.337500X-0.475000X0.337500X-0.475000X0*%
%ADD19RoundRect,0.250000X-0.325000X-0.450000X0.325000X-0.450000X0.325000X0.450000X-0.325000X0.450000X0*%
%ADD20C,1.500000*%
%ADD21RoundRect,0.250000X0.450000X-0.325000X0.450000X0.325000X-0.450000X0.325000X-0.450000X-0.325000X0*%
%ADD22R,1.500000X2.000000*%
%ADD23R,3.800000X2.000000*%
%ADD24R,1.700000X1.700000*%
%ADD25O,1.700000X1.700000*%
%ADD26RoundRect,0.250000X0.350000X0.450000X-0.350000X0.450000X-0.350000X-0.450000X0.350000X-0.450000X0*%
%ADD27RoundRect,0.075000X-0.441942X-0.548008X0.548008X0.441942X0.441942X0.548008X-0.548008X-0.441942X0*%
%ADD28RoundRect,0.075000X0.441942X-0.548008X0.548008X-0.441942X-0.441942X0.548008X-0.548008X0.441942X0*%
%ADD29R,1.900000X1.300000*%
G04 APERTURE END LIST*
D10*
%TO.C,U4*%
X147062500Y-113250000D03*
X147062500Y-115150000D03*
X148937500Y-114200000D03*
%TD*%
D11*
%TO.C,R8*%
X179600000Y-109500000D03*
X181600000Y-109500000D03*
%TD*%
D12*
%TO.C,D6*%
X170250000Y-99800000D03*
X173750000Y-99800000D03*
%TD*%
D13*
%TO.C,C18*%
X178762500Y-107200000D03*
X180837500Y-107200000D03*
%TD*%
D14*
%TO.C,C10*%
X171580000Y-104357500D03*
X171580000Y-102282500D03*
%TD*%
D15*
%TO.C,C7*%
X177774888Y-113300000D03*
D16*
X180274888Y-113300000D03*
%TD*%
D17*
%TO.C,C5*%
X135200000Y-97062500D03*
X135200000Y-99137500D03*
%TD*%
D18*
%TO.C,C3*%
X136537500Y-110550000D03*
X134462500Y-110550000D03*
%TD*%
D19*
%TO.C,D2*%
X169955000Y-107400000D03*
X172005000Y-107400000D03*
%TD*%
D20*
%TO.C,Y1*%
X130550000Y-101800000D03*
X130550000Y-106680000D03*
%TD*%
D18*
%TO.C,C2*%
X132687500Y-97250000D03*
X130612500Y-97250000D03*
%TD*%
D14*
%TO.C,C9*%
X173680000Y-104357500D03*
X173680000Y-102282500D03*
%TD*%
D21*
%TO.C,D1*%
X158500000Y-106525000D03*
X158500000Y-104475000D03*
%TD*%
D13*
%TO.C,C8*%
X175662500Y-109500000D03*
X177737500Y-109500000D03*
%TD*%
D22*
%TO.C,U3*%
X176280000Y-103870000D03*
X178580000Y-103870000D03*
D23*
X178580000Y-97570000D03*
D22*
X180880000Y-103870000D03*
%TD*%
D24*
%TO.C,J1*%
X119300000Y-100620000D03*
D25*
X119300000Y-103160000D03*
X119300000Y-105700000D03*
X119300000Y-108240000D03*
%TD*%
D26*
%TO.C,R2*%
X162600000Y-104500000D03*
X160600000Y-104500000D03*
%TD*%
%TO.C,R3*%
X175900000Y-107400000D03*
X173900000Y-107400000D03*
%TD*%
D17*
%TO.C,C4*%
X138300000Y-97062500D03*
X138300000Y-99137500D03*
%TD*%
D27*
%TO.C,U1*%
X141895519Y-105661181D03*
X142249072Y-106014734D03*
X142602625Y-106368287D03*
X142956179Y-106721841D03*
X143309732Y-107075394D03*
X143663286Y-107428948D03*
X144016839Y-107782501D03*
X144370392Y-108136054D03*
X144723946Y-108489608D03*
X145077499Y-108843161D03*
X145431052Y-109196714D03*
X145784606Y-109550268D03*
X146138159Y-109903821D03*
X146491713Y-110257375D03*
X146845266Y-110610928D03*
X147198819Y-110964481D03*
D28*
X149921181Y-110964481D03*
X150274734Y-110610928D03*
X150628287Y-110257375D03*
X150981841Y-109903821D03*
X151335394Y-109550268D03*
X151688948Y-109196714D03*
X152042501Y-108843161D03*
X152396054Y-108489608D03*
X152749608Y-108136054D03*
X153103161Y-107782501D03*
X153456714Y-107428948D03*
X153810268Y-107075394D03*
X154163821Y-106721841D03*
X154517375Y-106368287D03*
X154870928Y-106014734D03*
X155224481Y-105661181D03*
D27*
X155224481Y-102938819D03*
X154870928Y-102585266D03*
X154517375Y-102231713D03*
X154163821Y-101878159D03*
X153810268Y-101524606D03*
X153456714Y-101171052D03*
X153103161Y-100817499D03*
X152749608Y-100463946D03*
X152396054Y-100110392D03*
X152042501Y-99756839D03*
X151688948Y-99403286D03*
X151335394Y-99049732D03*
X150981841Y-98696179D03*
X150628287Y-98342625D03*
X150274734Y-97989072D03*
X149921181Y-97635519D03*
D28*
X147198819Y-97635519D03*
X146845266Y-97989072D03*
X146491713Y-98342625D03*
X146138159Y-98696179D03*
X145784606Y-99049732D03*
X145431052Y-99403286D03*
X145077499Y-99756839D03*
X144723946Y-100110392D03*
X144370392Y-100463946D03*
X144016839Y-100817499D03*
X143663286Y-101171052D03*
X143309732Y-101524606D03*
X142956179Y-101878159D03*
X142602625Y-102231713D03*
X142249072Y-102585266D03*
X141895519Y-102938819D03*
%TD*%
D29*
%TO.C,Y2*%
X135150000Y-101850000D03*
X138350000Y-101850000D03*
X135150000Y-107350000D03*
X138350000Y-107350000D03*
%TD*%
D24*
%TO.C,J3*%
X119350000Y-119670000D03*
D25*
X121890000Y-119670000D03*
X124430000Y-119670000D03*
X126970000Y-119670000D03*
X129510000Y-119670000D03*
X132050000Y-119670000D03*
X134590000Y-119670000D03*
X137130000Y-119670000D03*
X139670000Y-119670000D03*
X142210000Y-119670000D03*
X144750000Y-119670000D03*
X147290000Y-119670000D03*
X149830000Y-119670000D03*
X152370000Y-119670000D03*
X154910000Y-119670000D03*
X157450000Y-119670000D03*
X159990000Y-119670000D03*
X162530000Y-119670000D03*
X165070000Y-119670000D03*
X167610000Y-119670000D03*
X170150000Y-119670000D03*
X172690000Y-119670000D03*
X175230000Y-119670000D03*
X177770000Y-119670000D03*
X180310000Y-119670000D03*
%TD*%
D24*
%TO.C,J2*%
X119340000Y-89190000D03*
D25*
X121880000Y-89190000D03*
X124420000Y-89190000D03*
X126960000Y-89190000D03*
X129500000Y-89190000D03*
X132040000Y-89190000D03*
X134580000Y-89190000D03*
X137120000Y-89190000D03*
X139660000Y-89190000D03*
X142200000Y-89190000D03*
X144740000Y-89190000D03*
X147280000Y-89190000D03*
X149820000Y-89190000D03*
X152360000Y-89190000D03*
X154900000Y-89190000D03*
X157440000Y-89190000D03*
X159980000Y-89190000D03*
X162520000Y-89190000D03*
X165060000Y-89190000D03*
X167600000Y-89190000D03*
X170140000Y-89190000D03*
X172680000Y-89190000D03*
X175220000Y-89190000D03*
X177760000Y-89190000D03*
X180300000Y-89190000D03*
%TD*%
M02*
