M48
; DRILL file {KiCad 8.0.1} date 2024-03-27T10:15:25-0300
; FORMAT={-:-/ absolute / inch / decimal}
; #@! TF.CreationDate,2024-03-27T10:15:25-03:00
; #@! TF.GenerationSoftware,Kicad,Pcbnew,8.0.1
; #@! TF.FileFunction,Plated,1,2,PTH
FMAT,2
INCH
; #@! TA.AperFunction,Plated,PTH,ViaDrill
T1C0.0079
; #@! TA.AperFunction,Plated,PTH,ViaDrill
T2C0.0157
; #@! TA.AperFunction,Plated,PTH,ComponentDrill
T3C0.0315
; #@! TA.AperFunction,Plated,PTH,ComponentDrill
T4C0.0394
%
G90
G05
T1
X5.0394Y-3.7795
X5.0394Y-3.8189
X5.0394Y-3.8583
X5.0394Y-3.8976
X5.0394Y-3.937
X5.0394Y-3.9764
X5.0394Y-4.0157
X5.0394Y-4.0551
X5.0394Y-4.0945
X5.0394Y-4.1339
X5.0394Y-4.1732
X5.0394Y-4.2126
X5.0394Y-4.252
X5.0394Y-4.2913
X5.0394Y-4.3307
X5.0787Y-3.7795
X5.0787Y-4.3307
X5.1181Y-3.7795
X5.1181Y-4.3307
X5.1575Y-3.7795
X5.1575Y-4.3307
X5.1969Y-3.7795
X5.1969Y-4.3307
X5.2362Y-3.7795
X5.2362Y-4.3307
X5.2362Y-4.3701
X5.2362Y-4.4094
X5.258Y-4.02
X5.2598Y-3.9567
X5.2598Y-3.9882
X5.2598Y-4.0472
X5.2756Y-3.7795
X5.2756Y-4.4094
X5.2835Y-4.0709
X5.2913Y-3.9567
X5.3071Y-4.0866
X5.315Y-3.7795
X5.315Y-4.4094
X5.3307Y-4.1024
X5.3543Y-3.7795
X5.3543Y-3.9606
X5.3543Y-4.4094
X5.3622Y-4.1024
X5.3701Y-4.0472
X5.3858Y-3.8976
X5.3858Y-3.9291
X5.3858Y-3.9606
X5.3858Y-3.9921
X5.3858Y-4.0236
X5.3858Y-4.1181
X5.3937Y-3.7795
X5.3937Y-4.4094
X5.4016Y-4.0551
X5.4094Y-4.1417
X5.4173Y-3.9606
X5.4252Y-4.0787
X5.4331Y-3.7795
X5.4331Y-4.1654
X5.4331Y-4.4094
X5.4567Y-4.1811
X5.4724Y-3.7795
X5.4724Y-4.063
X5.4724Y-4.4094
X5.4843Y-3.9606
X5.4882Y-4.0945
X5.5118Y-3.7795
X5.5118Y-3.8189
X5.5118Y-3.8583
X5.5118Y-3.8976
X5.5118Y-3.937
X5.5118Y-3.9764
X5.5118Y-4.0157
X5.5118Y-4.0551
X5.5118Y-4.0945
X5.5118Y-4.1181
X5.5118Y-4.2362
X5.5118Y-4.3307
X5.5118Y-4.3701
X5.5118Y-4.4094
X5.5354Y-4.1417
T2
X4.6575Y-3.8189
X4.6575Y-3.8661
X4.6614Y-4.3583
X4.6614Y-4.4016
X4.7559Y-4.3583
X4.8002Y-4.6211
X4.8031Y-4.3583
X4.8228Y-3.8425
X4.8701Y-3.8425
X4.876Y-3.9035
X4.876Y-4.0059
X4.8819Y-4.622
X4.9449Y-4.0118
X4.9606Y-4.622
X4.9921Y-4.0118
X5.0Y-3.815
X5.0Y-3.8622
X5.0394Y-4.622
X5.4567Y-4.2835
X5.4567Y-4.3228
X5.4646Y-4.4409
X5.5118Y-4.4409
X5.5512Y-4.0079
X5.563Y-4.3268
X5.6496Y-4.0945
X5.6969Y-4.0472
X5.7047Y-4.1339
X5.7323Y-4.4409
X5.7323Y-4.4803
X5.7323Y-4.5315
X5.7402Y-4.1969
X5.7402Y-4.6378
X5.7717Y-3.7205
X5.7717Y-3.7756
X5.7756Y-4.6378
X5.7795Y-3.9528
X5.815Y-3.9528
X5.8189Y-3.6535
X5.8268Y-3.7756
X5.8346Y-3.9094
X5.8425Y-4.315
X5.8465Y-3.6811
X5.8661Y-4.1024
X5.878Y-4.6378
X5.8976Y-3.7574
X5.9016Y-4.4567
X5.9055Y-4.063
X5.9055Y-4.1024
X5.9055Y-4.1417
X5.9134Y-4.6378
X5.9213Y-3.9567
X5.9528Y-3.6142
X5.9724Y-4.0118
X6.0433Y-4.0984
X6.0472Y-3.6142
X6.1811Y-4.1063
X6.2008Y-4.2638
X6.2598Y-3.9685
X6.2598Y-4.0079
X6.3346Y-4.2913
X6.3976Y-4.2913
X6.4173Y-3.9291
X6.4646Y-4.2913
X6.5512Y-3.6142
X6.563Y-4.2598
X6.5827Y-3.9291
X6.6291Y-4.115
X6.6299Y-3.9291
X6.6457Y-3.6142
X6.6496Y-4.311
X6.6614Y-4.1614
X6.6969Y-4.311
X6.748Y-3.6142
X6.7559Y-4.311
X6.7677Y-4.1614
X6.8071Y-4.315
X6.8386Y-4.3465
X6.8504Y-4.1614
X6.8701Y-4.378
X6.937Y-4.1614
X6.9398Y-3.972
X6.9398Y-4.0096
X6.9831Y-3.7537
X6.9843Y-4.248
X7.0748Y-4.1614
X7.1179Y-3.6652
X7.1179Y-3.7537
X7.1185Y-3.9701
X7.1189Y-4.0077
X7.1378Y-4.378
X7.1563Y-4.4201
X7.1563Y-4.485
X7.1624Y-3.4892
X7.1624Y-3.5315
X7.1693Y-4.1614
X7.1701Y-4.6917
X7.1701Y-4.7409
T3
X5.1398Y-4.0079
X5.1398Y-4.2
X6.999Y-4.4606
X7.0974Y-4.4606
T4
X4.6969Y-3.9614
X4.6969Y-4.0614
X4.6969Y-4.1614
X4.6969Y-4.2614
X4.6984Y-3.5114
X4.6988Y-4.7114
X4.7984Y-3.5114
X4.7988Y-4.7114
X4.8984Y-3.5114
X4.8988Y-4.7114
X4.9984Y-3.5114
X4.9988Y-4.7114
X5.0984Y-3.5114
X5.0988Y-4.7114
X5.1984Y-3.5114
X5.1988Y-4.7114
X5.2984Y-3.5114
X5.2988Y-4.7114
X5.3984Y-3.5114
X5.3988Y-4.7114
X5.4984Y-3.5114
X5.4988Y-4.7114
X5.5984Y-3.5114
X5.5988Y-4.7114
X5.6984Y-3.5114
X5.6988Y-4.7114
X5.7984Y-3.5114
X5.7988Y-4.7114
X5.8984Y-3.5114
X5.8988Y-4.7114
X5.9984Y-3.5114
X5.9988Y-4.7114
X6.0984Y-3.5114
X6.0988Y-4.7114
X6.1984Y-3.5114
X6.1988Y-4.7114
X6.2984Y-3.5114
X6.2988Y-4.7114
X6.3984Y-3.5114
X6.3988Y-4.7114
X6.4984Y-3.5114
X6.4988Y-4.7114
X6.5984Y-3.5114
X6.5988Y-4.7114
X6.6984Y-3.5114
X6.6988Y-4.7114
X6.7984Y-3.5114
X6.7988Y-4.7114
X6.8984Y-3.5114
X6.8988Y-4.7114
X6.9984Y-3.5114
X6.9988Y-4.7114
X7.0984Y-3.5114
X7.0988Y-4.7114
M30
