%TF.GenerationSoftware,KiCad,Pcbnew,8.0.1*%
%TF.CreationDate,2024-03-27T10:15:15-03:00*%
%TF.ProjectId,CPU Stm32G431,43505520-5374-46d3-9332-473433312e6b,rev?*%
%TF.SameCoordinates,Original*%
%TF.FileFunction,Soldermask,Bot*%
%TF.FilePolarity,Negative*%
%FSLAX46Y46*%
G04 Gerber Fmt 4.6, Leading zero omitted, Abs format (unit mm)*
G04 Created by KiCad (PCBNEW 8.0.1) date 2024-03-27 10:15:15*
%MOMM*%
%LPD*%
G01*
G04 APERTURE LIST*
G04 Aperture macros list*
%AMRoundRect*
0 Rectangle with rounded corners*
0 $1 Rounding radius*
0 $2 $3 $4 $5 $6 $7 $8 $9 X,Y pos of 4 corners*
0 Add a 4 corners polygon primitive as box body*
4,1,4,$2,$3,$4,$5,$6,$7,$8,$9,$2,$3,0*
0 Add four circle primitives for the rounded corners*
1,1,$1+$1,$2,$3*
1,1,$1+$1,$4,$5*
1,1,$1+$1,$6,$7*
1,1,$1+$1,$8,$9*
0 Add four rect primitives between the rounded corners*
20,1,$1+$1,$2,$3,$4,$5,0*
20,1,$1+$1,$4,$5,$6,$7,0*
20,1,$1+$1,$6,$7,$8,$9,0*
20,1,$1+$1,$8,$9,$2,$3,0*%
G04 Aperture macros list end*
%ADD10RoundRect,0.250000X-0.337500X-0.475000X0.337500X-0.475000X0.337500X0.475000X-0.337500X0.475000X0*%
%ADD11R,1.600000X1.600000*%
%ADD12C,1.600000*%
%ADD13C,1.500000*%
%ADD14R,1.700000X1.700000*%
%ADD15O,1.700000X1.700000*%
%ADD16RoundRect,0.250000X-1.000000X-0.650000X1.000000X-0.650000X1.000000X0.650000X-1.000000X0.650000X0*%
%ADD17RoundRect,0.150000X0.150000X-0.825000X0.150000X0.825000X-0.150000X0.825000X-0.150000X-0.825000X0*%
%ADD18RoundRect,0.250000X0.450000X-0.350000X0.450000X0.350000X-0.450000X0.350000X-0.450000X-0.350000X0*%
%ADD19RoundRect,0.250000X-0.475000X0.337500X-0.475000X-0.337500X0.475000X-0.337500X0.475000X0.337500X0*%
%ADD20RoundRect,0.250000X-0.450000X0.350000X-0.450000X-0.350000X0.450000X-0.350000X0.450000X0.350000X0*%
%ADD21RoundRect,0.250000X1.000000X0.650000X-1.000000X0.650000X-1.000000X-0.650000X1.000000X-0.650000X0*%
%ADD22RoundRect,0.250000X0.475000X-0.337500X0.475000X0.337500X-0.475000X0.337500X-0.475000X-0.337500X0*%
G04 APERTURE END LIST*
D10*
%TO.C,C17*%
X141362500Y-112400000D03*
X143437500Y-112400000D03*
%TD*%
D11*
%TO.C,C7*%
X177774888Y-113300000D03*
D12*
X180274888Y-113300000D03*
%TD*%
D13*
%TO.C,Y1*%
X130550000Y-101800000D03*
X130550000Y-106680000D03*
%TD*%
D14*
%TO.C,J1*%
X119300000Y-100620000D03*
D15*
X119300000Y-103160000D03*
X119300000Y-105700000D03*
X119300000Y-108240000D03*
%TD*%
D16*
%TO.C,D3*%
X152380000Y-111000000D03*
X156380000Y-111000000D03*
%TD*%
D17*
%TO.C,U2*%
X164285000Y-106895000D03*
X163015000Y-106895000D03*
X161745000Y-106895000D03*
X160475000Y-106895000D03*
X160475000Y-101945000D03*
X161745000Y-101945000D03*
X163015000Y-101945000D03*
X164285000Y-101945000D03*
%TD*%
D18*
%TO.C,R7*%
X160000000Y-97500000D03*
X160000000Y-95500000D03*
%TD*%
D19*
%TO.C,C14*%
X151600000Y-103362500D03*
X151600000Y-105437500D03*
%TD*%
%TO.C,C12*%
X148400000Y-105962500D03*
X148400000Y-108037500D03*
%TD*%
D14*
%TO.C,J3*%
X119350000Y-119670000D03*
D15*
X121890000Y-119670000D03*
X124430000Y-119670000D03*
X126970000Y-119670000D03*
X129510000Y-119670000D03*
X132050000Y-119670000D03*
X134590000Y-119670000D03*
X137130000Y-119670000D03*
X139670000Y-119670000D03*
X142210000Y-119670000D03*
X144750000Y-119670000D03*
X147290000Y-119670000D03*
X149830000Y-119670000D03*
X152370000Y-119670000D03*
X154910000Y-119670000D03*
X157450000Y-119670000D03*
X159990000Y-119670000D03*
X162530000Y-119670000D03*
X165070000Y-119670000D03*
X167610000Y-119670000D03*
X170150000Y-119670000D03*
X172690000Y-119670000D03*
X175230000Y-119670000D03*
X177770000Y-119670000D03*
X180310000Y-119670000D03*
%TD*%
D20*
%TO.C,R5*%
X162500000Y-91700000D03*
X162500000Y-93700000D03*
%TD*%
D18*
%TO.C,R6*%
X162500000Y-97500000D03*
X162500000Y-95500000D03*
%TD*%
D16*
%TO.C,D4*%
X152375000Y-114800000D03*
X156375000Y-114800000D03*
%TD*%
D19*
%TO.C,C15*%
X146700000Y-101862500D03*
X146700000Y-103937500D03*
%TD*%
%TO.C,C13*%
X151700000Y-93362500D03*
X151700000Y-95437500D03*
%TD*%
%TO.C,C16*%
X155500000Y-103362500D03*
X155500000Y-105437500D03*
%TD*%
%TO.C,C11*%
X154100000Y-93362500D03*
X154100000Y-95437500D03*
%TD*%
D21*
%TO.C,D5*%
X181240000Y-116200000D03*
X177240000Y-116200000D03*
%TD*%
D14*
%TO.C,J2*%
X119340000Y-89190000D03*
D15*
X121880000Y-89190000D03*
X124420000Y-89190000D03*
X126960000Y-89190000D03*
X129500000Y-89190000D03*
X132040000Y-89190000D03*
X134580000Y-89190000D03*
X137120000Y-89190000D03*
X139660000Y-89190000D03*
X142200000Y-89190000D03*
X144740000Y-89190000D03*
X147280000Y-89190000D03*
X149820000Y-89190000D03*
X152360000Y-89190000D03*
X154900000Y-89190000D03*
X157440000Y-89190000D03*
X159980000Y-89190000D03*
X162520000Y-89190000D03*
X165060000Y-89190000D03*
X167600000Y-89190000D03*
X170140000Y-89190000D03*
X172680000Y-89190000D03*
X175220000Y-89190000D03*
X177760000Y-89190000D03*
X180300000Y-89190000D03*
%TD*%
D20*
%TO.C,R4*%
X160000000Y-91700000D03*
X160000000Y-93700000D03*
%TD*%
D18*
%TO.C,R1*%
X143500000Y-109800000D03*
X143500000Y-107800000D03*
%TD*%
D22*
%TO.C,C6*%
X166700000Y-106637500D03*
X166700000Y-104562500D03*
%TD*%
D19*
%TO.C,C1*%
X142200000Y-96962500D03*
X142200000Y-99037500D03*
%TD*%
M02*
